<?xml version="1.0" standalone="no"?>
<!DOCTYPE svg PUBLIC "-//W3C//DTD SVG 1.1//EN" "http://www.w3.org/Graphics/SVG/1.1/DTD/svg11.dtd" >
<svg xmlns="http://www.w3.org/2000/svg">
<metadata></metadata>
<defs>
<font id="core_sans_gs95_black" horiz-adv-x="1312" >
<font-face units-per-em="2048" ascent="1638" descent="-410" />
<missing-glyph horiz-adv-x="614" />
<glyph unicode="&#xfb01;" horiz-adv-x="1505" d="M20 799q0 66 47 112.5t113 46.5h23v66q0 250 152.5 392.5t424.5 142.5q227 0 402 -132q63 -47 63 -129q0 -66 -46.5 -111.5t-113.5 -45.5q-63 0 -116 47q-62 51 -148 51q-95 0 -152 -59.5t-57 -153.5v-68h584q85 0 145 -59.5t60 -144.5v-574q0 -85 -60 -145t-145 -60 t-145 60t-60 145v459h-379v-459q0 -85 -59.5 -145t-144.5 -60t-145 60t-60 145v459h-23q-66 0 -113 47t-47 113z" />
<glyph unicode="&#xfb02;" horiz-adv-x="1523" d="M31 799q0 66 46.5 112.5t112.5 46.5h13v97q0 235 134 369.5t353 134.5q93 0 181.5 -30t148.5 -79q24 48 76.5 78.5t117.5 30.5q85 0 145 -60t60 -145v-1200q0 -72 -60.5 -125.5t-144.5 -53.5q-85 0 -144.5 54t-59.5 131v1009q-32 31 -82 50.5t-105 19.5q-101 0 -156 -57 t-55 -154v-70h103q66 0 112.5 -46.5t46.5 -112.5t-46.5 -113t-112.5 -47h-103v-459q0 -85 -59.5 -145t-144.5 -60t-145 60t-60 145v459h-13q-66 0 -112.5 47t-46.5 113z" />
<glyph unicode="&#xfb03;" horiz-adv-x="2304" d="M612 639v-459q0 -85 -59.5 -145t-144.5 -60t-145 60t-60 145v459h-23q-66 0 -113 47t-47 113t47 112.5t113 46.5h23v138q0 201 109 316.5t298 115.5q147 0 271 -70q73 -44 73 -129q0 -60 -43 -102.5t-104 -42.5q-39 0 -64 14q-23 10 -47 10q-39 0 -61.5 -27.5 t-22.5 -80.5v-142h389v66q0 250 152.5 392.5t425.5 142.5q226 0 401 -132q64 -48 64 -129q0 -66 -46.5 -111.5t-113.5 -45.5q-64 0 -117 47q-62 51 -147 51q-95 0 -152 -59.5t-57 -153.5v-68h584q85 0 145 -59.5t60 -144.5v-574q0 -85 -60 -145t-145 -60t-145 60t-60 145 v459h-379v-459q0 -85 -60 -145t-145 -60t-145 60t-60 145v459h-389z" />
<glyph unicode="&#xfb04;" horiz-adv-x="2322" d="M1808 180v989q-77 70 -186 70q-101 0 -156 -57t-55 -154v-70h102q66 0 113 -46.5t47 -112.5t-47 -113t-113 -47h-102v-459q0 -85 -60 -145t-145 -60t-145 60t-60 145v459h-389v-459q0 -85 -59.5 -145t-144.5 -60t-145 60t-60 145v459h-23q-66 0 -113 47t-47 113t47 112.5 t113 46.5h23v138q0 201 109 316.5t298 115.5q147 0 271 -70q73 -44 73 -129q0 -60 -43 -102.5t-104 -42.5q-39 0 -64 14q-23 10 -47 10q-39 0 -61.5 -27.5t-22.5 -80.5v-142h389v97q0 235 134.5 369.5t353.5 134.5q94 0 186.5 -31.5t149.5 -85.5q25 55 75.5 87t112.5 32 q85 0 145 -60t60 -145v-1176q0 -85 -60 -145t-145 -60t-145 60t-60 145z" />
<glyph horiz-adv-x="0" />
<glyph horiz-adv-x="0" />
<glyph horiz-adv-x="682" />
<glyph unicode="&#x9;" horiz-adv-x="485" />
<glyph unicode=" "  horiz-adv-x="614" />
<glyph unicode="&#x09;" horiz-adv-x="614" />
<glyph unicode="&#xa0;" horiz-adv-x="614" />
<glyph unicode="!" horiz-adv-x="770" d="M147 709v548q0 98 70 168t168 70t168 -70t70 -168v-548q0 -98 -70 -168t-168 -70t-168 70t-70 168zM385 -25q-103 0 -174.5 59.5t-71.5 153.5t71.5 154.5t174.5 60.5t174.5 -60.5t71.5 -154.5t-71.5 -153.5t-174.5 -59.5z" />
<glyph unicode="&#x22;" horiz-adv-x="1290" d="M213 879l-27 393q-1 7 -1 20q0 76 56.5 129.5t135.5 53.5q81 0 137 -55t56 -134q0 -2 -0.5 -7t-0.5 -7l-28 -393q-5 -65 -52.5 -110.5t-111.5 -45.5t-111.5 45.5t-52.5 110.5zM750 879l-27 393q0 2 -0.5 7t-0.5 7q0 79 55 134t136 55t137.5 -55t56.5 -134q0 -2 -0.5 -7 t-0.5 -7l-29 -393q-5 -65 -52.5 -110.5t-111.5 -45.5t-111 45.5t-52 110.5z" />
<glyph unicode="#" horiz-adv-x="1411" d="M47 991q0 69 48.5 118.5t117.5 49.5h55v139q0 72 52 124.5t124 52.5t124.5 -52.5t52.5 -124.5v-139h170v139q0 72 52 124.5t124 52.5t124 -52.5t52 -124.5v-139h53q69 0 118.5 -49.5t49.5 -118.5t-49.5 -117.5t-118.5 -48.5h-53v-211h53q69 0 118.5 -49.5t49.5 -118.5 t-49.5 -117t-118.5 -48h-53v-146q0 -72 -52 -124t-124 -52t-124 52t-52 124v146h-170v-148q0 -71 -53 -122.5t-124 -51.5q-72 0 -124 52t-52 124v146h-55q-69 0 -117.5 48t-48.5 117t48.5 118.5t117.5 49.5h55v211h-55q-69 0 -117.5 48.5t-48.5 117.5zM621 825v-211h170v211 h-170z" />
<glyph unicode="$" horiz-adv-x="1189" d="M88 246q0 82 56.5 139t138.5 57q56 0 115 -38q55 -35 153 -35q49 0 80 22.5t31 61.5t-26 65.5t-104 54.5q-199 73 -304 185t-105 280q0 144 82 250.5t227 147.5v75q0 68 47.5 116t116.5 48t117.5 -48t48.5 -116v-69q69 -13 172 -56q49 -22 79.5 -65t30.5 -96 q0 -71 -52 -122.5t-122 -51.5q-36 0 -73 16q-58 25 -109 25q-100 0 -100 -62q0 -37 39 -63t161 -74q349 -137 349 -457q0 -163 -89.5 -278.5t-252.5 -157.5v-76q0 -68 -48.5 -117t-117.5 -49q-68 0 -116 49t-48 117v62q-136 20 -270 86q-5 0 -5 2q-47 24 -74.5 70t-27.5 102 z" />
<glyph unicode="%" horiz-adv-x="1949" d="M1845 332q0 -151 -107.5 -254t-256.5 -103q-150 0 -257.5 103.5t-107.5 253.5q0 149 107.5 251.5t257.5 102.5q149 0 256.5 -102.5t107.5 -251.5zM104 1102q0 150 107.5 253t257.5 103t257.5 -103t107.5 -253q0 -149 -107.5 -251.5t-257.5 -102.5t-257.5 102.5 t-107.5 251.5zM426 106q0 36 25 72l862 1211q39 53 96 53q47 0 81 -34t34 -81q0 -33 -21 -65l-868 -1217q-37 -51 -96 -51q-47 0 -80 32.5t-33 79.5zM387 1102q0 -33 23.5 -56.5t58.5 -23.5q34 0 58 24t24 56q0 34 -24 58t-58 24q-35 0 -58.5 -24t-23.5 -58zM1563 332 q0 33 -23.5 56.5t-58.5 23.5q-34 0 -58 -24t-24 -56q0 -34 24 -58t58 -24q35 0 58.5 24t23.5 58z" />
<glyph unicode="&#x26;" horiz-adv-x="1443" d="M1210 233l28 -37q44 -59 44 -120q0 -77 -56 -133t-134 -56q-90 0 -155 82l-56 72q-121 -66 -285 -66q-240 0 -383 118t-143 308q0 245 231 416l-12 17q-109 144 -109 274q0 157 123 253.5t305 96.5q116 0 214 -42.5t158 -123t60 -182.5q0 -191 -192 -336l-35 -26 l160 -207q30 30 49 53q59 76 154 76q82 0 139 -57.5t57 -139.5t-61 -141q-83 -84 -101 -99zM465 418q0 -46 35.5 -77.5t89.5 -31.5q44 0 82 19l-158 204q-49 -42 -49 -114zM688 1110q0 33 -20 55.5t-58 22.5q-36 0 -57 -22t-21 -58q0 -25 19 -60t51 -65q41 26 63.5 61.5 t22.5 65.5z" />
<glyph unicode="'" horiz-adv-x="753" d="M213 879l-27 393v13q0 80 55 135t136 55t137 -55t56 -134q0 -2 -0.5 -7t-0.5 -7l-28 -393q-5 -65 -52.5 -110.5t-111.5 -45.5t-111.5 45.5t-52.5 110.5z" />
<glyph unicode="(" horiz-adv-x="892" d="M158 635q0 201 55 413.5t162 403.5q27 49 70.5 79t95.5 30q73 0 127.5 -54.5t54.5 -128.5q0 -37 -12 -67q-140 -327 -140 -676t140 -676q12 -30 12 -65q0 -74 -54.5 -128.5t-127.5 -54.5q-49 0 -90.5 24t-65.5 64q-114 194 -170.5 410t-56.5 426z" />
<glyph unicode=")" horiz-adv-x="892" d="M735 635q0 -210 -56.5 -426t-170.5 -410q-24 -40 -65.5 -64t-90.5 -24q-73 0 -127.5 54.5t-54.5 128.5q0 35 12 65q140 327 140 676t-140 676q-12 30 -12 67q0 74 54.5 128.5t127.5 54.5q52 0 95.5 -30t70.5 -79q107 -191 162 -403.5t55 -413.5z" />
<glyph unicode="*" horiz-adv-x="1310" d="M313 965l215 -131l-57 245q0 77 54 131t130 54q77 0 131 -54t54 -131l-58 -245l215 131q31 11 63 11q58 0 106 -34t67 -90q9 -28 9 -59q0 -59 -34.5 -107t-91.5 -68l-254 -26l187 -162q36 -49 36 -113q0 -91 -73 -146q-48 -36 -107 -36q-93 0 -151 78l-99 231l-98 -231 q-27 -37 -67 -57.5t-83 -20.5q-60 0 -108 36q-74 55 -74 146q0 63 37 113l187 162l-254 26q-57 20 -91.5 68t-34.5 107q0 31 9 59q19 56 67 90t106 34q31 0 62 -11z" />
<glyph unicode="+" horiz-adv-x="1306" d="M82 680q0 70 50 120t120 50h197v213q0 85 59.5 145t144.5 60t145 -60t60 -145v-213h197q71 0 120.5 -50t49.5 -120t-49.5 -120t-120.5 -50h-197v-213q0 -85 -60 -145t-145 -60t-144.5 60t-59.5 145v213h-197q-70 0 -120 50t-50 120z" />
<glyph unicode="," horiz-adv-x="663" d="M45 -170q0 24 6 45l99 436q15 67 70 110.5t126 43.5q85 0 144 -59t59 -144q0 -32 -10 -65l-154 -420q-20 -54 -64.5 -87.5t-101.5 -33.5q-72 0 -123 51t-51 123z" />
<glyph unicode="-" horiz-adv-x="831" d="M59 680q0 70 49.5 120t120.5 50h371q70 0 120 -50t50 -120t-50 -120t-120 -50h-371q-71 0 -120.5 50t-49.5 120z" />
<glyph unicode="." horiz-adv-x="663" d="M332 -25q-101 0 -173.5 71.5t-72.5 172.5t72.5 173.5t173.5 72.5t173.5 -72.5t72.5 -173.5t-72.5 -172.5t-173.5 -71.5z" />
<glyph unicode="/" horiz-adv-x="1263" d="M88 -51q0 44 21 88l686 1386q63 127 182 127q82 0 139.5 -57t57.5 -139q0 -45 -25 -97l-690 -1394q-25 -50 -71.5 -79.5t-104.5 -29.5q-79 0 -137 58t-58 137z" />
<glyph unicode="0" horiz-adv-x="1327" d="M766 717q0 130 -14 207t-35 103t-53 26t-53.5 -26t-35.5 -103t-14 -207t14 -207t35.5 -103t53.5 -26t53 26t35 103t14 207zM127 717q0 344 142.5 542.5t394.5 198.5t394 -198t142 -543t-142 -543.5t-394 -198.5t-394.5 198.5t-142.5 543.5z" />
<glyph unicode="1" horiz-adv-x="1327" d="M551 213v657l-41 -22q-60 -33 -111 -33q-79 0 -134.5 55.5t-55.5 135.5q0 58 30.5 104.5t82.5 75.5l473 260q42 22 79 22q63 0 107.5 -44t44.5 -107v-1104q0 -98 -70 -168t-168 -70t-167.5 70t-69.5 168z" />
<glyph unicode="2" horiz-adv-x="1327" d="M213 1153q0 77 53 133q158 172 398 172q216 0 354.5 -132t138.5 -343q0 -184 -129 -344l-186 -233h192q85 0 144 -59t59 -144t-59 -144t-144 -59h-725q-69 0 -117.5 48.5t-48.5 117.5q0 60 41 110l430 535q44 55 61 92t17 74q0 34 -23.5 56t-56.5 22q-42 0 -71 -29 q-58 -61 -140 -61q-78 0 -133 55t-55 133z" />
<glyph unicode="3" horiz-adv-x="1327" d="M176 252q0 78 56 134t135 56q65 0 125 -47q39 -30 88 -30q60 0 94.5 37t34.5 100q0 54 -35.5 90.5t-85.5 36.5q-4 0 -16.5 -1t-16.5 -1q-65 0 -109.5 44.5t-44.5 108.5q0 56 39 105l146 184h-242q-75 0 -128.5 53.5t-53.5 128.5t53.5 129t128.5 54h645q67 0 116.5 -49 t49.5 -117q0 -50 -41 -105l-217 -293q283 -128 283 -421q0 -95 -37.5 -180.5t-105.5 -151t-171.5 -104t-226.5 -38.5q-230 0 -397 131q-66 54 -66 146z" />
<glyph unicode="4" horiz-adv-x="1327" d="M662 193v32h-433q-67 0 -115 48t-48 116q0 48 30 96l586 887q31 47 80.5 76t107.5 29q94 0 160 -66t66 -160v-641h10q80 0 136 -56t56 -136t-56.5 -136.5t-135.5 -56.5h-10v-32q0 -91 -63 -154.5t-154 -63.5t-154 63.5t-63 154.5zM496 608h166v252z" />
<glyph unicode="5" horiz-adv-x="1327" d="M184 246q0 80 56 136t135 56q51 0 131 -51q35 -22 72 -22q60 0 96.5 35.5t36.5 93.5q0 61 -38 96t-98 35q-29 0 -67 -15q-38 -18 -82 -18q-76 0 -130 54t-54 130q0 13 4 41l73 500q7 51 47.5 84t94.5 33h520q79 0 136 -57t57 -136t-56.5 -135.5t-136.5 -56.5h-221 l-21 -117q200 -24 320.5 -149t120.5 -318q0 -102 -36.5 -190.5t-104.5 -155.5t-172.5 -105.5t-233.5 -38.5q-205 0 -365 112q-84 59 -84 159z" />
<glyph unicode="6" horiz-adv-x="1327" d="M1217 492q0 -149 -73 -268t-196 -184t-270 -65q-114 0 -217.5 38.5t-180.5 105.5t-123 164t-46 209q0 189 116 360l365 537q31 45 80 71.5t106 26.5q92 0 156.5 -64.5t64.5 -156.5q0 -67 -47 -138l-127 -196q171 -40 281.5 -163t110.5 -277zM664 365q53 0 88.5 36 t35.5 91t-35.5 90.5t-88.5 35.5t-89 -35.5t-36 -90.5t36 -91t89 -36z" />
<glyph unicode="7" horiz-adv-x="1327" d="M344 211q0 42 21 96l288 721h-315q-85 0 -144 59t-59 144t59 144t144 59h719q72 0 124 -52.5t52 -124.5q0 -29 -16 -75l-418 -1059q-26 -65 -86 -106.5t-133 -41.5q-97 0 -166.5 69.5t-69.5 166.5z" />
<glyph unicode="8" horiz-adv-x="1327" d="M664 -25q-242 0 -405 137t-163 339q0 112 51.5 202t145.5 146q-49 46 -80 112t-31 140q0 170 132.5 288.5t349.5 118.5t349 -118.5t132 -288.5q0 -74 -31 -140t-80 -112q94 -56 145.5 -146t51.5 -202q0 -133 -74 -242t-204 -171.5t-289 -62.5zM664 365q53 0 88.5 36 t35.5 91t-35.5 90.5t-88.5 35.5t-89 -35.5t-36 -90.5t36 -91t89 -36zM664 901q45 0 75.5 31t30.5 78t-30.5 77.5t-75.5 30.5t-76 -30.5t-31 -77.5t31 -78t76 -31z" />
<glyph unicode="9" horiz-adv-x="1327" d="M111 942q0 149 73 268t195.5 183.5t269.5 64.5q152 0 281.5 -64.5t208 -184t78.5 -267.5q0 -188 -117 -360l-344 -508q-31 -45 -80.5 -72t-106.5 -27q-92 0 -156.5 65t-64.5 157q0 66 47 137l107 168q-171 40 -281 163t-110 277zM664 1069q-53 0 -89 -36t-36 -91t36 -91 t89 -36t88.5 36t35.5 91t-35.5 91t-88.5 36z" />
<glyph unicode=":" horiz-adv-x="663" d="M332 -25q-101 0 -173.5 71.5t-72.5 172.5t72.5 173.5t173.5 72.5t173.5 -72.5t72.5 -173.5t-72.5 -172.5t-173.5 -71.5zM332 600q-101 0 -173.5 71.5t-72.5 172.5t72.5 173.5t173.5 72.5t173.5 -72.5t72.5 -173.5t-72.5 -172.5t-173.5 -71.5z" />
<glyph unicode=";" horiz-adv-x="663" d="M332 600q-101 0 -173.5 71.5t-72.5 172.5t72.5 173.5t173.5 72.5t173.5 -72.5t72.5 -173.5t-72.5 -172.5t-173.5 -71.5zM8 -170q0 24 6 45l99 436q15 67 70 110.5t126 43.5q85 0 144 -59t59 -144q0 -32 -10 -65l-154 -420q-20 -54 -64.5 -87.5t-101.5 -33.5 q-72 0 -123 51t-51 123z" />
<glyph unicode="&#x3c;" horiz-adv-x="1306" d="M922 170l-732 379q-79 42 -79 131t75 129l736 381q42 22 90 22q82 0 139 -57t57 -139q0 -59 -32 -106.5t-84 -71.5l-357 -158l357 -158q52 -24 84 -71.5t32 -106.5q0 -82 -57 -139.5t-139 -57.5q-46 0 -90 23z" />
<glyph unicode="=" horiz-adv-x="1306" d="M72 946q0 70 50 120t120 50h823q71 0 120.5 -50t49.5 -120t-49.5 -120t-120.5 -50h-823q-70 0 -120 50t-50 120zM72 414q0 70 50 120t120 50h823q71 0 120.5 -50t49.5 -120t-49.5 -120t-120.5 -50h-823q-70 0 -120 50t-50 120z" />
<glyph unicode="&#x3e;" horiz-adv-x="1306" d="M1116 549l-731 -379q-44 -23 -90 -23q-82 0 -139.5 57.5t-57.5 139.5q0 59 32.5 106.5t84.5 71.5l356 158l-356 158q-52 24 -84.5 71.5t-32.5 106.5q0 82 57.5 139t139.5 57q48 0 90 -22l735 -381q36 -19 56 -53t20 -76q0 -88 -80 -131z" />
<glyph unicode="?" horiz-adv-x="1173" d="M119 1176q0 57 43 110q58 73 164 122.5t264 49.5q238 0 376 -105.5t138 -260.5q0 -250 -262 -363q-113 -48 -146.5 -70.5t-33.5 -46.5q0 -32 65 -32q13 0 45 4q3 1 8 1q21 0 37.5 -18t16.5 -39q0 -41 -37 -51q-86 -26 -187 -26q-128 0 -203 60t-75 153q0 147 180 251 q58 34 85.5 71.5t27.5 90.5q0 41 -25.5 67.5t-71.5 26.5q-33 0 -61 -18.5t-43 -44.5q-57 -92 -145 -92q-67 0 -113.5 46t-46.5 114zM608 -25q-103 0 -174.5 59.5t-71.5 153.5t71.5 154.5t174.5 60.5t174.5 -60.5t71.5 -154.5t-71.5 -153.5t-174.5 -59.5z" />
<glyph unicode="@" horiz-adv-x="1900" d="M1065 268q-42 -62 -108 -95.5t-140 -33.5q-162 0 -264 119.5t-102 300.5t102 300.5t264 119.5q70 0 136.5 -30.5t111.5 -78.5v7q0 49 51 90t119 41q69 0 120.5 -41t51.5 -90v-437q0 -76 29.5 -114.5t83.5 -38.5q72 0 122 86.5t50 232.5q0 147 -56.5 281t-155 232.5 t-239 157t-299.5 58.5q-200 0 -368.5 -104t-266.5 -282t-98 -388q0 -206 99 -382.5t274.5 -282t386.5 -105.5q224 0 438 111q20 12 37 12q26 0 43.5 -17t17.5 -42q0 -38 -32 -56q-249 -131 -504 -131q-186 0 -354.5 74.5t-287 197.5t-188 286t-69.5 335q0 116 31 229.5 t86.5 212t136 183t175.5 144.5t209.5 94t233.5 34q186 0 353 -70.5t283.5 -188t184.5 -272.5t68 -321q0 -212 -112 -339.5t-318 -127.5q-236 0 -336 129zM1030 559q0 49 -35 84t-84 35q-51 0 -84.5 -34.5t-33.5 -84.5q0 -51 33.5 -85t84.5 -34q50 0 84.5 34t34.5 85z" />
<glyph unicode="A" horiz-adv-x="1490" d="M113 188q0 40 24 101l424 1032q24 59 73 96t111 37q61 0 112 -37.5t75 -95.5l426 -1042q20 -48 20 -91q0 -88 -63 -150.5t-152 -62.5q-69 0 -124.5 38t-75.5 100l-25 75h-387l-23 -67q-22 -65 -77 -105.5t-125 -40.5q-88 0 -150.5 62.5t-62.5 150.5zM745 805l-108 -334 h217z" />
<glyph unicode="B" horiz-adv-x="1267" d="M123 141v1147q0 60 40.5 103t100.5 43h354q246 0 376 -105t130 -278q0 -193 -145 -289q231 -108 231 -342q0 -194 -149 -307t-457 -113h-340q-60 0 -100.5 40.5t-40.5 100.5zM618 606h-55v-299h55q78 0 123 39.5t45 110.5t-45 110t-123 39zM563 893h60q55 0 86.5 33 t31.5 84t-31.5 83.5t-86.5 32.5h-60v-233z" />
<glyph unicode="C" horiz-adv-x="1538" d="M70 717q0 130 40.5 247t113 206t168 154.5t209 99.5t233.5 34q151 0 274 -42.5t205 -98.5q42 -28 67 -74.5t25 -99.5q0 -86 -61.5 -147.5t-147.5 -61.5q-73 0 -147 57q-83 62 -203 62q-129 0 -225.5 -95t-96.5 -241t96.5 -241t225.5 -95t214 69q59 50 136 50 q86 0 147.5 -61.5t61.5 -147.5q0 -55 -27 -101.5t-73 -76.5q-205 -138 -471 -138q-150 0 -288.5 54.5t-244 149.5t-168.5 235.5t-63 302.5z" />
<glyph unicode="D" horiz-adv-x="1427" d="M123 141v1147q0 60 40.5 103t100.5 43h330q161 0 301.5 -51.5t242.5 -143.5t161 -227t59 -295t-59 -295t-161 -227t-242.5 -143.5t-301.5 -51.5h-330q-60 0 -100.5 40.5t-40.5 100.5zM588 1028v-622h20q135 0 210 80t75 231t-75 231t-210 80h-20z" />
<glyph unicode="E" horiz-adv-x="1107" d="M123 141v1147q0 60 40.5 103t100.5 43h619q71 0 121.5 -51t50.5 -121t-50.5 -121t-121.5 -51h-285v-187h244q70 0 121 -50.5t51 -121.5t-51 -121.5t-121 -50.5h-244v-215h301q71 0 121.5 -51t50.5 -121t-50.5 -121t-121.5 -51h-635q-60 0 -100.5 40.5t-40.5 100.5z" />
<glyph unicode="F" horiz-adv-x="1073" d="M123 213v1075q0 60 40.5 103t100.5 43h608q70 0 121 -51t51 -121t-51 -121t-121 -51h-274v-197h231q72 0 123.5 -51t51.5 -123t-51.5 -121t-123.5 -49h-231v-336q0 -98 -70 -168t-168 -70t-167.5 70t-69.5 168z" />
<glyph unicode="G" horiz-adv-x="1628" d="M823 668q0 59 41 100t99 41h450q60 0 103 -42.5t43 -102.5v-11q0 -301 -199.5 -489.5t-521.5 -188.5q-148 0 -287.5 55t-245.5 151t-170.5 236t-64.5 300t64.5 300t172 235.5t247.5 150.5t290 55q248 0 452 -127q48 -30 77.5 -79t29.5 -105q0 -87 -62 -149t-149 -62 q-79 0 -135 47q-86 70 -211 70q-130 0 -228 -98t-98 -238q0 -73 28 -137.5t73 -107.5t102 -68t115 -25q94 0 167 38t109 111h-151q-59 0 -99.5 41t-40.5 99z" />
<glyph unicode="H" horiz-adv-x="1456" d="M123 213v1008q0 98 69.5 167.5t167.5 69.5t168 -69.5t70 -167.5v-273h260v273q0 98 70 167.5t168 69.5t167.5 -69.5t69.5 -167.5v-1008q0 -98 -69.5 -168t-167.5 -70t-168 70t-70 168v330h-260v-330q0 -98 -70 -168t-168 -70t-167.5 70t-69.5 168z" />
<glyph unicode="I" horiz-adv-x="753" d="M139 213v1008q0 98 70 167.5t168 69.5t167.5 -69.5t69.5 -167.5v-1008q0 -98 -69.5 -168t-167.5 -70t-168 70t-70 168z" />
<glyph unicode="J" horiz-adv-x="1216" d="M74 260q0 83 58 142t140 59q73 0 127 -45q41 -35 95 -35q55 0 89.5 36t34.5 97v707q0 98 70 167.5t168 69.5t168 -69.5t70 -167.5v-721q0 -240 -150 -382.5t-403 -142.5q-211 0 -373 115q-94 67 -94 170z" />
<glyph unicode="K" horiz-adv-x="1474" d="M123 213v1008q0 98 69.5 167.5t167.5 69.5t168 -69.5t70 -167.5v-367l272 479q32 56 86 90.5t119 34.5q95 0 162.5 -67t67.5 -162q0 -66 -27 -109l-246 -385l281 -409q33 -47 33 -119q0 -95 -68.5 -163.5t-163.5 -68.5q-130 0 -213 138l-303 508v-408q0 -98 -70 -168 t-168 -70t-167.5 70t-69.5 168z" />
<glyph unicode="L" horiz-adv-x="1079" d="M123 141v1080q0 98 69.5 167.5t167.5 69.5t168 -69.5t70 -167.5v-815h262q83 0 143 -60t60 -143q0 -84 -59.5 -143.5t-143.5 -59.5h-596q-60 0 -100.5 40.5t-40.5 100.5z" />
<glyph unicode="M" horiz-adv-x="2097" d="M98 203q0 30 13 76l313 1028q20 66 70 108.5t116 42.5q62 0 111.5 -36t71.5 -93l256 -651l251 643q24 61 72.5 99t112.5 38q67 0 117.5 -42.5t70.5 -108.5l316 -1035q10 -33 10 -69q0 -94 -65.5 -160t-159.5 -66q-81 0 -142 49.5t-80 127.5l-120 510l-207 -564 q-21 -56 -68 -90.5t-108 -34.5t-109.5 35.5t-69.5 93.5l-204 560l-123 -514q-19 -77 -79.5 -125t-139.5 -48q-94 0 -160 66t-66 160z" />
<glyph unicode="N" horiz-adv-x="1511" d="M123 207v1081q0 71 49 120.5t119 49.5q85 0 131 -55l502 -584v406q0 97 67 165t164 68t165.5 -68t68.5 -165v-1082q0 -70 -49.5 -119t-120.5 -49q-85 0 -132 56l-499 583v-407q0 -97 -68.5 -164.5t-165.5 -67.5t-164 67.5t-67 164.5z" />
<glyph unicode="O" horiz-adv-x="1699" d="M70 717q0 160 63.5 299.5t170 235.5t248.5 151t298 55t298 -55t248.5 -151t170 -235.5t63.5 -299.5t-63.5 -299.5t-170 -235.5t-248.5 -151.5t-298 -55.5t-298 55.5t-248.5 151.5t-170 235.5t-63.5 299.5zM524 717q0 -144 95 -240t235 -96t235 96t95 240t-95 240t-235 96 t-235 -96t-95 -240z" />
<glyph unicode="P" horiz-adv-x="1253" d="M123 203v1085q0 60 40.5 103t100.5 43h334q144 0 260 -39t190 -107.5t113 -160t39 -197.5q0 -107 -39.5 -197.5t-115 -159.5t-195.5 -108t-272 -39v-223q0 -94 -67 -161t-161 -67t-160.5 67t-66.5 161zM578 1090v-320h67q63 0 102 40.5t39 119.5t-39 119.5t-102 40.5h-67 z" />
<glyph unicode="Q" horiz-adv-x="1708" d="M70 717q0 160 63.5 299.5t170 235.5t248.5 151t298 55t298 -55t248.5 -151t170 -235.5t63.5 -299.5q0 -253 -151 -447l69 -63q74 -67 74 -156q0 -82 -58.5 -140t-140.5 -58q-81 0 -141 57l-131 121q-142 -56 -301 -56q-156 0 -298 55.5t-248.5 151.5t-170 235.5 t-63.5 299.5zM524 717q0 -144 95 -240t235 -96t235 96t95 240t-95 240t-235 96t-235 -96t-95 -240z" />
<glyph unicode="R" horiz-adv-x="1355" d="M123 203v1085q0 60 40.5 103t100.5 43h383q126 0 232.5 -39.5t176.5 -105t109 -150.5t39 -178q0 -269 -235 -400l229 -260q41 -46 41 -115q0 -94 -59 -152.5t-154 -58.5q-53 0 -101.5 24.5t-78.5 63.5l-268 361v-221q0 -94 -67 -161t-161 -67t-160.5 67t-66.5 161z M578 1090v-320h47q63 0 102 40.5t39 119.5t-39 119.5t-102 40.5h-47z" />
<glyph unicode="S" horiz-adv-x="1198" d="M88 250q0 82 56.5 139t138.5 57q54 0 102 -28q81 -49 166 -49q49 0 80 22.5t31 61.5t-26 65.5t-104 54.5q-199 73 -304 185t-105 280q0 182 131.5 301t349.5 119q175 0 334 -73q47 -21 76.5 -65t29.5 -95q0 -71 -52 -122.5t-122 -51.5q-32 0 -77 18q-54 23 -105 23 q-100 0 -100 -62q0 -37 39 -63t161 -74q349 -137 349 -457q0 -206 -143 -333.5t-392 -127.5q-231 0 -413 102q-46 26 -73.5 71.5t-27.5 101.5z" />
<glyph unicode="T" horiz-adv-x="1175" d="M350 213v815h-127q-85 0 -144 59t-59 144t59 144t144 59h729q85 0 144 -59t59 -144t-59 -144t-144 -59h-127v-815q0 -98 -69.5 -168t-167.5 -70t-168 70t-70 168z" />
<glyph unicode="U" horiz-adv-x="1437" d="M719 -25q-117 0 -224 40t-190 113t-132.5 185t-49.5 246v662q0 98 69.5 167.5t167.5 69.5t168 -69.5t70 -167.5v-699q0 -67 31.5 -104t89.5 -37t89.5 37t31.5 104v699q0 98 69.5 167.5t167.5 69.5t168 -69.5t70 -167.5v-662q0 -134 -49.5 -246t-132.5 -185t-190 -113 t-224 -40z" />
<glyph unicode="V" horiz-adv-x="1507" d="M113 1245q0 88 62.5 150.5t150.5 62.5q71 0 126.5 -45.5t79.5 -114.5l222 -624l225 639q23 64 78.5 104.5t124.5 40.5q88 0 150.5 -62.5t62.5 -150.5q0 -41 -15 -78l-446 -1069q-23 -55 -71.5 -89t-108.5 -34t-109 34t-72 89l-446 1069q-14 35 -14 78z" />
<glyph unicode="W" horiz-adv-x="2138" d="M113 1241q0 91 62 154t153 63q73 0 131 -43.5t78 -111.5l165 -584l195 610q18 57 64.5 93t105.5 36t107.5 -36.5t66.5 -92.5l195 -610l168 586q19 67 76 110t130 43q91 0 154.5 -63t63.5 -154q0 -40 -13 -76l-403 -1065q-21 -57 -68.5 -91t-107.5 -34q-62 0 -109 37.5 t-67 98.5l-191 594l-192 -596q-19 -59 -67.5 -96.5t-111.5 -37.5q-59 0 -104 32.5t-66 86.5l-395 1049q-20 52 -20 98z" />
<glyph unicode="X" horiz-adv-x="1497" d="M178 1229q0 94 68 161.5t162 67.5q65 0 119 -38t91 -99l130 -211l131 211q85 137 211 137q94 0 161.5 -67.5t67.5 -161.5q0 -70 -33 -117l-244 -364l289 -416q37 -53 37 -125q0 -97 -69 -165.5t-166 -68.5q-127 0 -211 133l-174 273l-170 -268q-39 -61 -94.5 -99.5 t-121.5 -38.5q-97 0 -165 68.5t-68 165.5q0 76 37 127l289 414l-238 352q-39 58 -39 129z" />
<glyph unicode="Y" horiz-adv-x="1511" d="M145 1237q0 92 64.5 156.5t155.5 64.5q66 0 119.5 -38t84.5 -99l187 -371l186 371q31 61 84 99t119 38q92 0 156.5 -64.5t64.5 -156.5q0 -61 -27 -107l-346 -595v-322q0 -98 -69.5 -168t-167.5 -70t-168 70t-70 168v322l-344 593q-29 50 -29 109z" />
<glyph unicode="Z" horiz-adv-x="1277" d="M90 176q0 43 31 103l414 770h-244q-80 0 -136.5 56.5t-56.5 135.5t57 136t136 57h719q70 0 120 -50t50 -120q0 -41 -25 -88l-446 -791h331q80 0 136.5 -56.5t56.5 -135.5t-56.5 -136t-136.5 -57h-774q-74 0 -125 51t-51 125z" />
<glyph unicode="[" horiz-adv-x="925" d="M635 74h80q69 0 119.5 -50.5t50.5 -119.5q0 -70 -50.5 -120t-119.5 -50h-348q-60 0 -101 40.5t-41 100.5v1516q0 60 41 102.5t101 42.5h348q69 0 119.5 -50.5t50.5 -119.5q0 -70 -50.5 -120t-119.5 -50h-80v-1122z" />
<glyph unicode="\" horiz-adv-x="1263" d="M1174 -51q0 -79 -58 -137t-137 -58q-58 0 -104.5 29.5t-71.5 79.5l-690 1394q-25 52 -25 97q0 82 57.5 139t139.5 57q119 0 182 -127l686 -1386q21 -44 21 -88z" />
<glyph unicode="]" horiz-adv-x="925" d="M211 74h80v1122h-80q-69 0 -119.5 50t-50.5 120q0 69 50.5 119.5t119.5 50.5h348q60 0 100.5 -42.5t40.5 -102.5v-1516q0 -60 -40.5 -100.5t-100.5 -40.5h-348q-69 0 -119.5 50t-50.5 120q0 69 50.5 119.5t119.5 50.5z" />
<glyph unicode="^" horiz-adv-x="1355" d="M250 981l289 389q60 78 137 78q84 0 141 -78l291 -391q41 -54 41 -117q0 -75 -53.5 -128.5t-128.5 -53.5q-92 0 -150 78l-139 192l-139 -192q-58 -78 -150 -78q-75 0 -128.5 53.5t-53.5 128.5q0 63 43 119z" />
<glyph unicode="_" horiz-adv-x="1024" d="M-20 -279q0 51 34.5 86t85.5 35h824q51 0 85.5 -35t34.5 -86t-34.5 -85.5t-85.5 -34.5h-824q-51 0 -85.5 34.5t-34.5 85.5z" />
<glyph unicode="`" horiz-adv-x="880" d="M211 1403q0 53 36.5 90t88.5 37q48 0 86 -33l184 -139q58 -44 58 -107q0 -51 -36 -86t-87 -35q-38 0 -72 23l-195 139q-63 46 -63 111z" />
<glyph unicode="a" d="M799 113q-54 -66 -132 -102t-165 -36q-194 0 -317.5 144t-123.5 360t123.5 360t317.5 144q85 0 163.5 -35t133.5 -94q38 129 205 129q84 0 144 -56.5t60 -131.5v-641q0 -74 -59.5 -126.5t-144.5 -52.5q-76 0 -130.5 35.5t-74.5 102.5zM758 479q0 60 -42 102t-102 42 t-101.5 -42t-41.5 -102t41.5 -101.5t101.5 -41.5t102 41.5t42 101.5z" />
<glyph unicode="b" d="M514 113q-40 -138 -205 -138q-85 0 -145 54.5t-60 130.5v1196q0 85 60 145t145 60t145 -60t60 -145v-502q55 59 133.5 94t163.5 35q194 0 317 -144t123 -360t-123 -360t-317 -144q-87 0 -165 36t-132 102zM555 479q0 -60 41.5 -101.5t101.5 -41.5t102 41.5t42 101.5 t-42 102t-102 42t-101.5 -42t-41.5 -102z" />
<glyph unicode="c" horiz-adv-x="1073" d="M53 479q0 138 71.5 254t192 183t261.5 67q166 0 311 -88q39 -23 62.5 -65t23.5 -89q0 -74 -52.5 -126t-127.5 -52q-53 0 -103 31q-37 29 -90 29q-60 0 -101.5 -42t-41.5 -102t41.5 -101.5t101.5 -41.5q50 0 90 29q38 30 103 30q75 0 127.5 -52.5t52.5 -127.5 q0 -46 -24.5 -88t-63.5 -66q-144 -86 -309 -86q-141 0 -261.5 67t-192 183t-71.5 254z" />
<glyph unicode="d" d="M799 113q-54 -66 -132 -102t-165 -36q-194 0 -317.5 144t-123.5 360t123.5 360t317.5 144q85 0 163.5 -35t133.5 -94v502q0 85 60 145t145 60t144.5 -60t59.5 -145v-1196q0 -77 -59.5 -131t-144.5 -54q-164 0 -205 138zM758 479q0 60 -42 102t-102 42t-101.5 -42 t-41.5 -102t41.5 -101.5t101.5 -41.5t102 41.5t42 101.5z" />
<glyph unicode="e" horiz-adv-x="1181" d="M625 262q84 0 149 43q68 41 105 41q65 0 109 -42.5t44 -106.5q0 -75 -92 -134q-139 -88 -340 -88q-151 0 -277 67t-198 183t-72 254t72 254t198 183t277 67q106 0 205 -41.5t169 -107.5t112 -151t42 -171v-6q0 -46 -32 -77.5t-78 -31.5h-553q6 -66 52.5 -100.5 t107.5 -34.5zM610 725q-55 0 -92 -27t-51 -75h287q-14 48 -51.5 75t-92.5 27z" />
<glyph unicode="f" horiz-adv-x="911" d="M20 799q0 66 47 112.5t113 46.5h23v168q0 201 109 317t298 116q147 0 271 -70q73 -44 73 -129q0 -60 -43 -103t-104 -43q-37 0 -64 15q-23 10 -47 10q-39 0 -61.5 -28t-22.5 -81v-172h113q66 0 113 -46.5t47 -112.5t-47 -113t-113 -47h-113v-459q0 -85 -59.5 -145 t-144.5 -60t-145 60t-60 145v459h-23q-66 0 -113 47t-47 113z" />
<glyph unicode="g" d="M193 -338q0 75 54.5 129.5t129.5 54.5q52 0 98 -27q57 -36 125 -36q92 0 145.5 57.5t53.5 167.5v105q-54 -66 -132 -102t-165 -36q-194 0 -317.5 144t-123.5 360t123.5 360t317.5 144q85 0 163.5 -35t133.5 -94q23 57 76 93t129 36q85 0 144.5 -60t59.5 -145v-741 q0 -300 -152.5 -457.5t-437.5 -157.5q-171 0 -319 74q-50 25 -78 68.5t-28 97.5zM758 479q0 60 -42 102t-102 42t-101.5 -42t-41.5 -102t41.5 -101.5t101.5 -41.5t102 41.5t42 101.5z" />
<glyph unicode="h" horiz-adv-x="1202" d="M104 180v1155q0 85 60 145t145 60t145 -60t60 -145v-483q46 58 120 94.5t163 36.5q133 0 218 -93t85 -253v-457q0 -85 -60 -145t-145 -60t-145 60t-60 145v359q0 42 -24.5 68t-63.5 26t-63.5 -26t-24.5 -68v-359q0 -85 -60 -145t-145 -60t-145 60t-60 145z" />
<glyph unicode="i" horiz-adv-x="638" d="M115 180v598q0 85 59.5 145t144.5 60t145 -60t60 -145v-598q0 -85 -60 -145t-145 -60t-144.5 60t-59.5 145zM104 1321q0 89 63 152t152 63t152.5 -63t63.5 -152t-63.5 -152t-152.5 -63t-152 63t-63 152z" />
<glyph unicode="j" horiz-adv-x="735" d="M-219 -352q0 75 53 128.5t127 53.5q44 0 88 -23q32 -16 62 -16q50 0 79 32t29 87v868q0 85 60 145t145 60t145 -60t60 -145v-882q0 -226 -124.5 -350t-350.5 -124q-152 0 -267 62q-46 26 -76 70t-30 94zM209 1321q0 89 63 152t152 63t152 -63t63 -152t-63 -152t-152 -63 t-152 63t-63 152z" />
<glyph unicode="k" horiz-adv-x="1269" d="M104 180v1176q0 85 60 145t145 60t145 -60t60 -145v-709l277 281q55 55 131 55t131 -54.5t55 -131.5q0 -79 -59 -131l-191 -166l221 -195q70 -63 70 -145q0 -76 -54.5 -130.5t-131.5 -54.5q-80 0 -148 72l-301 322v-189q0 -85 -60 -145t-145 -60t-145 60t-60 145z" />
<glyph unicode="l" horiz-adv-x="638" d="M115 180v1176q0 85 59.5 145t144.5 60t145 -60t60 -145v-1176q0 -85 -60 -145t-145 -60t-144.5 60t-59.5 145z" />
<glyph unicode="m" horiz-adv-x="1787" d="M104 180v619q0 76 60 130t145 54q174 0 205 -131q41 54 119.5 92.5t157.5 38.5q183 0 266 -147q51 65 134.5 106t190.5 41q134 0 219 -93.5t85 -252.5v-457q0 -85 -60 -145t-145 -60t-145 60t-60 145v359q0 42 -24.5 68t-63.5 26t-63.5 -26t-24.5 -68v-359 q0 -85 -60 -145t-145 -60t-145 60t-60 145v359q0 42 -24.5 68t-63.5 26t-63.5 -26t-24.5 -68v-359q0 -85 -60 -145t-145 -60t-145 60t-60 145z" />
<glyph unicode="n" horiz-adv-x="1202" d="M104 180v619q0 76 60 130t145 54q174 0 205 -131q41 54 119.5 92.5t157.5 38.5q144 0 226.5 -96.5t82.5 -286.5v-420q0 -85 -60 -145t-145 -60t-145 60t-60 145v359q0 42 -24.5 68t-63.5 26t-63.5 -26t-24.5 -68v-359q0 -85 -60 -145t-145 -60t-145 60t-60 145z" />
<glyph unicode="o" horiz-adv-x="1183" d="M53 479q0 209 155 356.5t384 147.5t383.5 -147.5t154.5 -356.5t-154.5 -356.5t-383.5 -147.5t-384 147.5t-155 356.5zM449 479q0 -60 41.5 -101.5t101.5 -41.5t101.5 41.5t41.5 101.5t-41.5 102t-101.5 42t-101.5 -42t-41.5 -102z" />
<glyph unicode="p" d="M514 846q54 65 132 101t165 36q194 0 317 -144t123 -360t-123 -360t-317 -144q-85 0 -163.5 35t-133.5 94v-496q0 -85 -60 -145t-145 -60t-145 60t-60 145v1191q0 76 60 130t145 54q165 0 205 -137zM555 479q0 -60 41.5 -101.5t101.5 -41.5t102 41.5t42 101.5t-42 102 t-102 42t-101.5 -42t-41.5 -102z" />
<glyph unicode="q" d="M799 846q40 137 205 137q85 0 144.5 -54t59.5 -130v-1191q0 -85 -59.5 -145t-144.5 -60t-145 60t-60 145v496q-55 -59 -133.5 -94t-163.5 -35q-194 0 -317.5 144t-123.5 360t123.5 360t317.5 144q87 0 165 -36t132 -101zM758 479q0 60 -42 102t-102 42t-101.5 -42 t-41.5 -102t41.5 -101.5t101.5 -41.5t102 41.5t42 101.5z" />
<glyph unicode="r" horiz-adv-x="929" d="M104 180v598q0 85 60 145t145 60q84 0 139.5 -47t65.5 -105q25 50 71.5 86t102.5 54q32 8 53 8q74 0 125.5 -51.5t51.5 -124.5t-51.5 -123.5t-125.5 -50.5q-24 0 -36 2t-31 2q-76 0 -118 -46t-42 -122v-285q0 -85 -60 -145t-145 -60t-145 60t-60 145z" />
<glyph unicode="s" horiz-adv-x="882" d="M59 174q0 61 44 105.5t104 44.5q36 0 76 -21q49 -27 84 -27q55 0 55 39q0 44 -70 78q-250 120 -250 299q0 130 98.5 210.5t264.5 80.5q125 0 229 -39q37 -14 60.5 -47.5t23.5 -75.5q0 -54 -38 -91.5t-93 -37.5q-16 0 -51 10q-25 7 -41 7q-53 0 -53 -29t108 -80 q211 -98 211 -295q0 -146 -101 -238t-280 -92q-169 0 -297 66q-38 19 -61 55t-23 78z" />
<glyph unicode="t" horiz-adv-x="847" d="M203 180v459h-13q-66 0 -112.5 47t-46.5 113t46.5 112.5t112.5 46.5h13v91q0 85 60 144.5t145 59.5t144.5 -59.5t59.5 -144.5v-91h60q66 0 112.5 -46.5t46.5 -112.5t-46.5 -113t-112.5 -47h-60v-459q0 -85 -59.5 -145t-144.5 -60t-145 60t-60 145z" />
<glyph unicode="u" horiz-adv-x="1204" d="M1100 778v-618q0 -76 -60 -130.5t-145 -54.5q-77 0 -132.5 33.5t-72.5 97.5q-41 -54 -119 -92.5t-157 -38.5q-144 0 -227 96.5t-83 286.5v420q0 85 60 145t145 60t145 -60t60 -145v-358q0 -42 24.5 -68t63.5 -26t63.5 26t24.5 68v358q0 85 60 145t145 60t145 -60t60 -145 z" />
<glyph unicode="v" horiz-adv-x="1105" d="M1026 709l-299 -619q-25 -51 -71.5 -83t-104.5 -32q-56 0 -102.5 32.5t-71.5 84.5l-297 617q-19 40 -19 82q0 79 56.5 135.5t136.5 56.5q61 0 109 -35.5t69 -91.5l121 -328l121 328q21 56 69 91.5t109 35.5q80 0 136 -56.5t56 -135.5q0 -44 -18 -82z" />
<glyph unicode="w" horiz-adv-x="1699" d="M432 872l131 -323l105 285q23 65 70.5 107t111.5 42q62 0 109 -42.5t71 -106.5l107 -285l131 323q20 51 67.5 81t106.5 30q80 0 136 -56.5t56 -135.5q0 -44 -18 -82l-295 -609q-27 -56 -73.5 -90.5t-106.5 -34.5t-108.5 35t-69.5 90l-113 301l-113 -301 q-21 -56 -69.5 -90.5t-110.5 -34.5q-59 0 -105 34.5t-73 90.5l-295 609q-18 38 -18 82q0 79 56 135.5t136 56.5q59 0 106.5 -30t67.5 -81z" />
<glyph unicode="x" horiz-adv-x="1128" d="M276 496l-135 180q-37 49 -37 115q0 79 56.5 135.5t136.5 56.5q102 0 160 -84l106 -162l107 162q58 84 159 84q80 0 136.5 -56.5t56.5 -135.5q0 -66 -37 -115l-133 -180l154 -226q28 -43 28 -102q0 -80 -56.5 -136.5t-135.5 -56.5q-104 0 -174 111l-105 168l-104 -168 q-70 -111 -174 -111q-79 0 -136 56.5t-57 136.5q0 57 29 102z" />
<glyph unicode="y" horiz-adv-x="1167" d="M265 -391q0 35 13 72l125 348l-311 671q-20 45 -20 88q0 82 55.5 138.5t136.5 56.5q62 0 112 -34.5t70 -90.5l148 -399l133 395q20 58 69 93.5t113 35.5q82 0 138.5 -56.5t56.5 -138.5q0 -35 -12 -69l-429 -1174q-22 -61 -75.5 -101t-119.5 -40q-85 0 -144 60t-59 145z " />
<glyph unicode="z" horiz-adv-x="980" d="M80 809q0 62 44 105.5t107 43.5h521q54 0 92.5 -38.5t38.5 -92.5q0 -34 -21 -69l-280 -459h211q61 0 105 -43.5t44 -105.5t-44 -106t-105 -44h-588q-54 0 -91.5 37.5t-37.5 91.5q0 34 24 80l256 450h-125q-63 0 -107 44t-44 106z" />
<glyph unicode="{" horiz-adv-x="995" d="M135 635q0 62 68 106q64 39 90 98t26 146v123q0 194 113.5 311t300.5 117h53q70 0 120 -50t50 -120q0 -130 -129 -170q-39 -11 -68.5 -59t-29.5 -138v-43q0 -108 -52.5 -191.5t-148.5 -129.5q96 -46 148.5 -130t52.5 -192v-43q0 -90 29.5 -137.5t68.5 -58.5 q129 -40 129 -170q0 -70 -50 -120t-120 -50h-53q-187 0 -300.5 117t-113.5 311v123q0 84 -24.5 142t-85.5 97q-74 46 -74 111z" />
<glyph unicode="|" horiz-adv-x="737" d="M174 -240v1645q0 79 57.5 136.5t137.5 57.5q79 0 136.5 -57.5t57.5 -136.5v-1645q0 -80 -57.5 -137t-136.5 -57q-80 0 -137.5 57.5t-57.5 136.5z" />
<glyph unicode="}" horiz-adv-x="995" d="M860 635q0 -65 -74 -111q-61 -39 -85.5 -97t-24.5 -142v-123q0 -194 -113.5 -311t-300.5 -117h-53q-71 0 -120.5 50t-49.5 120q0 130 129 170q39 11 68.5 58.5t29.5 137.5v43q0 108 52.5 192t148.5 130q-96 46 -148.5 129.5t-52.5 191.5v43q0 90 -29.5 138t-68.5 59 q-129 40 -129 170q0 70 49.5 120t120.5 50h53q187 0 300.5 -117t113.5 -311v-123q0 -87 26 -146t91 -98q67 -43 67 -106z" />
<glyph unicode="~" horiz-adv-x="1306" d="M98 596q0 23 8 59q31 137 112 215t196 78q71 0 127 -20t118 -68q60 -47 92 -67.5t52 -20.5q18 0 26.5 7.5t14.5 27.5q20 59 68 98t110 39q76 0 131 -55t55 -131q0 -15 -4 -39q-29 -145 -110.5 -227t-198.5 -82q-72 0 -128 20.5t-118 67.5q-61 48 -92 68t-51 20 q-30 0 -41 -29q-25 -64 -72 -104.5t-110 -40.5q-77 0 -131 54t-54 130z" />
<glyph unicode="&#xa1;" horiz-adv-x="819" d="M696 250v-549q0 -98 -69.5 -168t-167.5 -70t-168 70t-70 168v549q0 98 70 167.5t168 69.5t167.5 -69.5t69.5 -167.5zM459 983q103 0 174.5 -59.5t71.5 -153.5t-71.5 -154.5t-174.5 -60.5t-174.5 60.5t-71.5 154.5t71.5 153.5t174.5 59.5z" />
<glyph unicode="&#xa2;" horiz-adv-x="1073" d="M53 479q0 171 108 305t273 179v81q0 56 39 96t94 40t95 -40t40 -96v-75q95 -19 187 -74q39 -23 62.5 -65t23.5 -89q0 -74 -52.5 -126t-127.5 -52q-53 0 -103 31q-37 29 -90 29q-60 0 -101.5 -42t-41.5 -102t41.5 -101.5t101.5 -41.5q50 0 90 29q38 30 103 30 q75 0 127.5 -52.5t52.5 -127.5q0 -46 -24.5 -88t-63.5 -66q-80 -50 -185 -71v-76q0 -56 -40 -95.5t-95 -39.5t-94 39.5t-39 95.5v82q-165 45 -273 178.5t-108 304.5z" />
<glyph unicode="&#xa3;" horiz-adv-x="1275" d="M119 170q0 59 39 109q94 125 94 241v103h-86q-29 0 -49.5 20t-20.5 49t20.5 49.5t49.5 20.5h86v221q0 207 128.5 341t348.5 134q192 0 338 -94q80 -51 80 -145q0 -72 -50.5 -122t-121.5 -50q-38 0 -68 12q-35 14 -67 14q-53 0 -82 -32.5t-29 -92.5v-186h207 q29 0 49.5 -20.5t20.5 -49.5t-20.5 -49t-49.5 -20h-207v-15q0 -138 -53 -223h362q80 0 136.5 -56.5t56.5 -135.5t-56.5 -136t-136.5 -57h-749q-71 0 -120.5 50t-49.5 120z" />
<glyph unicode="&#xa4;" horiz-adv-x="1490" d="M168 299q0 74 51 125l90 90q-33 84 -33 166q0 80 33 164l-92 94q-49 49 -49 123q0 72 51.5 124t124.5 52q72 0 129 -57l88 -88q82 36 184 36q101 0 183 -36l96 96q49 49 123 49q72 0 124 -52t52 -124q0 -74 -51 -125l-92 -92q34 -75 34 -164q0 -91 -34 -166l82 -82 q61 -61 61 -133q0 -73 -52 -124.5t-124 -51.5q-74 0 -127 53l-92 90q-87 -35 -183 -35q-97 0 -184 35l-88 -88q-55 -55 -129 -55t-125 51.5t-51 124.5zM629 680q0 -48 33 -82.5t83 -34.5t83.5 34.5t33.5 82.5t-33.5 82.5t-83.5 34.5t-83 -34.5t-33 -82.5z" />
<glyph unicode="&#xa5;" horiz-adv-x="1511" d="M145 1237q0 92 64.5 156.5t155.5 64.5q66 0 119.5 -38t84.5 -99l187 -371l186 371q31 61 84 99t119 38q92 0 156.5 -64.5t64.5 -156.5q0 -61 -27 -107l-252 -434h166q29 0 49.5 -20t20.5 -49t-20.5 -49.5t-49.5 -20.5h-247l-13 -22v-56h260q29 0 49.5 -20t20.5 -49 t-20.5 -49.5t-49.5 -20.5h-260v-127q0 -98 -69.5 -168t-167.5 -70t-168 70t-70 168v127h-254q-29 0 -49 20.5t-20 49.5t20 49t49 20h254v56l-14 22h-240q-29 0 -49 20.5t-20 49.5t20 49t49 20h160l-250 432q-29 50 -29 109z" />
<glyph unicode="&#xa6;" horiz-adv-x="737" d="M174 883v399q0 80 58 137.5t137 57.5t136.5 -57.5t57.5 -137.5v-399q0 -80 -57.5 -137.5t-136.5 -57.5t-137 58t-58 137zM174 -76v398q0 79 57.5 136.5t137.5 57.5q79 0 136.5 -57t57.5 -137v-398q0 -80 -57.5 -137t-136.5 -57q-80 0 -137.5 57.5t-57.5 136.5z" />
<glyph unicode="&#xa7;" horiz-adv-x="1095" d="M242 -37q0 52 34.5 87.5t85.5 35.5q18 0 46 -8q18 -6 38 -6q32 0 52 16.5t20 44.5q0 33 -29.5 58.5t-123.5 78.5q-230 130 -230 359q0 98 45 180.5t129 136.5q-104 97 -104 228q0 126 95.5 204t250.5 78q131 0 242 -57q31 -15 49 -44.5t18 -66.5q0 -51 -35.5 -86 t-87.5 -35q-21 0 -45 9q-15 6 -37 6q-32 0 -51.5 -17t-19.5 -45q0 -33 29.5 -58.5t123.5 -78.5q230 -130 230 -358q0 -98 -45 -181.5t-129 -136.5q104 -97 104 -227q0 -126 -95.5 -204.5t-250.5 -78.5q-118 0 -238 56q-32 14 -51.5 43.5t-19.5 66.5zM457 627 q0 -40 27.5 -68.5t66.5 -28.5t66.5 28.5t27.5 68.5t-27 68t-67 28t-67 -28t-27 -68z" />
<glyph unicode="&#xa8;" horiz-adv-x="880" d="M72 1329q0 65 45.5 110.5t109.5 45.5q65 0 110.5 -45.5t45.5 -110.5q0 -64 -45.5 -109.5t-110.5 -45.5t-110 45t-45 110zM498 1329q0 65 45.5 110.5t109.5 45.5q65 0 110.5 -45.5t45.5 -110.5q0 -64 -45.5 -109.5t-110.5 -45.5t-110 45t-45 110z" />
<glyph unicode="&#xa9;" horiz-adv-x="1658" d="M88 717q0 151 58.5 288.5t157.5 236.5t236.5 157.5t288.5 58.5q202 0 372.5 -99t270 -269.5t99.5 -372.5t-99.5 -372.5t-270 -270t-372.5 -99.5t-372.5 99.5t-269.5 270t-99 372.5zM203 717q0 -130 49.5 -247.5t133.5 -202.5t199.5 -135t243.5 -50t244 50t200 135 t133.5 202.5t49.5 247.5t-49.5 247.5t-133.5 202.5t-200 135t-244 50t-243.5 -50t-199.5 -135t-133.5 -202.5t-49.5 -247.5zM434 715q0 165 122 281t292 116q131 0 244 -70q67 -41 67 -120q0 -59 -40.5 -99.5t-100.5 -40.5q-51 0 -80 23q-31 22 -72 22q-47 0 -80.5 -32.5 t-33.5 -79.5q0 -46 33.5 -78.5t80.5 -32.5q39 0 72 23q31 24 80 24q60 0 100.5 -41t40.5 -100q0 -38 -19 -70t-50 -51q-108 -67 -242 -67q-170 0 -292 115t-122 278z" />
<glyph unicode="&#xaa;" horiz-adv-x="970" d="M889 1309v-451q0 -61 -44 -105t-106 -44q-51 0 -91 30.5t-54 77.5q-36 -48 -96.5 -78t-124.5 -30q-141 0 -231.5 107.5t-90.5 266.5t90.5 267t231.5 108q64 0 124.5 -30t96.5 -78q14 46 54.5 77t90.5 31q62 0 106 -44t44 -105zM350 1083q0 -44 31 -74t74 -30q44 0 74 30 t30 74t-30 74.5t-74 30.5q-43 0 -74 -30.5t-31 -74.5z" />
<glyph unicode="&#xab;" horiz-adv-x="1323" d="M59 637q0 63 50 100l340 260q49 35 86 35q54 0 91.5 -37.5t37.5 -91.5q0 -60 -46 -96l-212 -170l212 -170q46 -36 46 -96q0 -54 -37.5 -91.5t-91.5 -37.5q-39 0 -86 34l-340 263q-50 40 -50 98zM653 637q0 64 49 100l340 260q49 35 86 35q54 0 91.5 -37.5t37.5 -91.5 q0 -61 -45 -96l-213 -170l213 -170q45 -35 45 -96q0 -54 -37.5 -91.5t-91.5 -37.5q-39 0 -86 34l-340 263q-49 39 -49 98z" />
<glyph unicode="&#xac;" horiz-adv-x="1306" d="M82 760q0 70 50 120t120 50h782q70 0 120 -50t50 -120v-266q0 -85 -60 -145t-145 -60t-144.5 60t-59.5 145v96h-543q-70 0 -120 50t-50 120z" />
<glyph unicode="&#xad;" horiz-adv-x="831" d="M78 680q0 70 50 120t120 50h336q70 0 120 -50t50 -120t-50 -120t-120 -50h-336q-70 0 -120 50t-50 120z" />
<glyph unicode="&#xae;" horiz-adv-x="1658" d="M88 717q0 151 58.5 288.5t157.5 236.5t236.5 157.5t288.5 58.5q202 0 372.5 -99t270 -269.5t99.5 -372.5t-99.5 -372.5t-270 -270t-372.5 -99.5t-372.5 99.5t-269.5 270t-99 372.5zM203 717q0 -130 49.5 -247.5t133.5 -202.5t199.5 -135t243.5 -50t244 50t200 135 t133.5 202.5t49.5 247.5t-49.5 247.5t-133.5 202.5t-200 135t-244 50t-243.5 -50t-199.5 -135t-133.5 -202.5t-49.5 -247.5zM514 428v606q0 31 25.5 54.5t60.5 23.5h238q154 0 250 -76t96 -182q0 -144 -131 -219l116 -158q25 -28 25 -61q0 -51 -37 -83t-96 -32 q-35 0 -66.5 13t-48.5 36l-133 213v-135q0 -51 -49.5 -87t-108.5 -36t-100 35.5t-41 87.5zM813 905v-133h25q35 0 56 18.5t21 47.5q0 30 -21 48.5t-56 18.5h-25z" />
<glyph unicode="&#xaf;" horiz-adv-x="1024" d="M-20 1329q0 51 34.5 86t85.5 35h824q51 0 85.5 -35t34.5 -86t-34.5 -86t-85.5 -35h-824q-51 0 -85.5 35t-34.5 86z" />
<glyph unicode="&#xb0;" horiz-adv-x="819" d="M115 1167q0 125 85.5 208t209.5 83t209.5 -83t85.5 -208t-85.5 -207.5t-209.5 -82.5t-209.5 82.5t-85.5 207.5zM330 1167q0 -35 23.5 -57.5t56.5 -22.5t56 22.5t23 57.5t-23 57.5t-56 22.5t-56.5 -22.5t-23.5 -57.5z" />
<glyph unicode="&#xb1;" horiz-adv-x="1306" d="M98 893q0 71 50 120.5t120 49.5h181v133q0 85 59.5 145t144.5 60t145 -60t60 -145v-133h180q70 0 120 -49.5t50 -120.5t-50 -120.5t-120 -49.5h-180v-131q0 -85 -60 -145t-145 -60t-144.5 60t-59.5 145v131h-181q-70 0 -120 49.5t-50 120.5zM1038 0h-770q-70 0 -120 50 t-50 120t50 120t120 50h770q70 0 120 -50t50 -120t-50 -120t-120 -50z" />
<glyph unicode="&#xb2;" horiz-adv-x="860" d="M84 606q0 40 29 76l280 350q51 64 51 111q0 21 -15 35t-36 14q-28 0 -47 -16q-46 -39 -90 -39q-52 0 -88.5 36.5t-36.5 88.5q0 51 49 100q96 96 246 96q143 0 234.5 -86t91.5 -211q0 -75 -21 -131.5t-69 -116.5l-123 -151h139q56 0 94.5 -39t38.5 -94t-38.5 -94 t-94.5 -39h-483q-46 0 -78.5 32t-32.5 78z" />
<glyph unicode="&#xb3;" horiz-adv-x="860" d="M260 1006q0 38 29 75l78 97h-142q-54 0 -90.5 36.5t-36.5 90.5t36.5 91.5t90.5 37.5h408q46 0 79 -33.5t33 -79.5q0 -39 -24 -70l-141 -188q186 -86 186 -279q0 -131 -96.5 -222t-259.5 -91q-147 0 -248 76q-51 39 -51 102q0 53 35.5 89t89.5 36q42 0 77 -24 q28 -21 58 -21q39 0 61.5 24t22.5 64q0 35 -23 60.5t-55 25.5h-15q-43 0 -72.5 30t-29.5 73z" />
<glyph unicode="&#xb4;" horiz-adv-x="880" d="M670 1403q0 -64 -64 -111l-194 -139q-34 -23 -72 -23q-51 0 -87 35t-36 86q0 64 57 107l185 139q46 33 86 33q52 0 88.5 -37t36.5 -90z" />
<glyph unicode="&#xb5;" horiz-adv-x="1204" d="M104 -215v993q0 85 60 145t145 60t145 -60t60 -145v-358q0 -42 24.5 -68t63.5 -26t63.5 26t24.5 68v358q0 85 60 145t145 60t145 -60t60 -145v-633q0 -76 -60 -130t-145 -54q-76 0 -132 37.5t-73 107.5q-57 -76 -176 -116v-205q0 -85 -60 -145t-145 -60t-145 60t-60 145z " />
<glyph unicode="&#xb6;" horiz-adv-x="1374" d="M551 -143v690h-19q-130 0 -237.5 51.5t-174.5 154.5t-67 240q0 205 127 323t328 118h577q61 0 105.5 -44t44.5 -106v-1427q0 -61 -44.5 -105.5t-105.5 -44.5t-105 44t-44 106v1280h-86v-1280q0 -61 -44 -105.5t-106 -44.5q-61 0 -105 44t-44 106z" />
<glyph unicode="&#xb7;" horiz-adv-x="663" d="M332 430q-101 0 -173.5 71.5t-72.5 172.5t72.5 173.5t173.5 72.5t173.5 -72.5t72.5 -173.5t-72.5 -172.5t-173.5 -71.5z" />
<glyph unicode="&#xb8;" horiz-adv-x="880" d="M281 -162q0 17 6 29l65 137h226l-50 -102q55 -20 87 -64.5t32 -109.5q0 -92 -71.5 -153.5t-180.5 -61.5q-64 0 -125 14q-32 8 -54.5 35t-22.5 61q0 39 27.5 66.5t66.5 27.5q14 0 22 -2q20 -4 31 -4q41 0 41 31q0 34 -53 41q-21 3 -34 18.5t-13 36.5z" />
<glyph unicode="&#xb9;" horiz-adv-x="860" d="M342 610v471l-37 -20q-25 -14 -59 -14q-51 0 -88 36.5t-37 87.5q0 75 63 111l293 162q26 16 62 16q47 0 80.5 -33.5t33.5 -80.5v-736q0 -64 -45.5 -109.5t-109.5 -45.5q-65 0 -110.5 45.5t-45.5 109.5z" />
<glyph unicode="&#xba;" horiz-adv-x="970" d="M881 1083q0 -156 -115.5 -265t-282.5 -109q-164 0 -278.5 109.5t-114.5 264.5q0 156 114.5 265.5t278.5 109.5q167 0 282.5 -109.5t115.5 -265.5zM381 1083q0 -44 30.5 -74t73.5 -30q44 0 74.5 30t30.5 74t-30.5 74.5t-74.5 30.5q-43 0 -73.5 -30.5t-30.5 -74.5z" />
<glyph unicode="&#xbb;" horiz-adv-x="1323" d="M1257 639q0 64 -49 100l-340 260q-49 35 -86 35q-54 0 -91.5 -37.5t-37.5 -91.5q0 -61 45 -96l213 -170l-213 -170q-45 -35 -45 -96q0 -54 37.5 -91.5t91.5 -37.5q37 0 86 35l340 262q49 39 49 98zM664 639q0 63 -50 100l-340 260q-49 35 -86 35q-54 0 -91.5 -37.5 t-37.5 -91.5q0 -61 45 -96l213 -170l-213 -170q-45 -35 -45 -96q0 -54 37.5 -91.5t91.5 -37.5q37 0 86 35l340 262q50 40 50 98z" />
<glyph unicode="&#xbc;" horiz-adv-x="2074" d="M1585 119v39h-291q-44 0 -77 33t-33 77q0 34 22 66l375 565q46 66 127 66q64 0 109 -44.5t45 -109.5v-410h4q51 0 87 -35.5t36 -86.5t-36 -86t-87 -35h-4v-39q0 -58 -40.5 -97.5t-99.5 -39.5q-58 0 -97.5 39t-39.5 98zM1466 399h119v179zM328 610v471l-37 -20 q-25 -14 -60 -14q-51 0 -88 36.5t-37 87.5q0 35 17.5 64.5t46.5 46.5l293 162q26 16 61 16q47 0 81 -33.5t34 -80.5v-736q0 -64 -45.5 -109.5t-110.5 -45.5t-110 45.5t-45 109.5zM586 84q0 25 18 61l676 1258q24 47 84 47q41 0 70.5 -29.5t29.5 -70.5q0 -23 -10 -43 l-680 -1264q-29 -57 -90 -57q-41 0 -69.5 28.5t-28.5 69.5z" />
<glyph unicode="&#xbd;" horiz-adv-x="2080" d="M1303 111q0 40 28 75l281 351q51 64 51 110q0 21 -15 35t-36 14q-28 0 -47 -16q-46 -39 -90 -39q-53 0 -89 36.5t-36 88.5q0 51 49 100q97 97 246 97q142 0 233.5 -86t91.5 -211q0 -75 -21 -131.5t-69 -116.5l-123 -152h139q56 0 95 -39t39 -94t-39 -94t-95 -39h-483 q-46 0 -78 32.5t-32 78.5zM328 610v471l-37 -20q-25 -14 -60 -14q-51 0 -88 36.5t-37 87.5q0 35 17.5 64.5t46.5 46.5l293 162q26 16 61 16q47 0 81 -33.5t34 -80.5v-736q0 -64 -45.5 -109.5t-110.5 -45.5t-110 45.5t-45 109.5zM586 84q0 25 18 61l676 1258q24 47 84 47 q41 0 70.5 -29.5t29.5 -70.5q0 -23 -10 -43l-680 -1264q-29 -57 -90 -57q-41 0 -69.5 28.5t-28.5 69.5z" />
<glyph unicode="&#xbe;" horiz-adv-x="2080" d="M592 84q0 25 18 61l676 1258q24 47 84 47q41 0 70.5 -29.5t29.5 -70.5q0 -23 -10 -43l-680 -1264q-29 -57 -90 -57q-41 0 -69.5 28.5t-28.5 69.5zM252 1006q0 38 29 75l77 97h-141q-54 0 -90.5 36.5t-36.5 90.5t36.5 91.5t90.5 37.5h408q46 0 79 -33.5t33 -79.5 q0 -39 -24 -70l-142 -188q187 -86 187 -279q0 -131 -97 -222t-260 -91q-146 0 -247 76q-52 39 -52 102q0 53 35.5 89t89.5 36q43 0 78 -24q28 -21 57 -21q39 0 61.5 24t22.5 64q0 35 -22.5 60.5t-54.5 25.5h-15q-43 0 -72.5 30t-29.5 73zM1591 106v39h-291q-44 0 -77 33.5 t-33 77.5q0 34 22 66l375 565q45 65 127 65q65 0 109.5 -44.5t44.5 -108.5v-410h4q51 0 87 -36t36 -87t-36 -86t-87 -35h-4v-39q0 -58 -40 -97.5t-99 -39.5t-98.5 39.5t-39.5 97.5zM1473 387h118v178z" />
<glyph unicode="&#xbf;" horiz-adv-x="1175" d="M1073 -225q0 -58 -43 -111q-58 -73 -164 -122.5t-264 -49.5q-238 0 -376 106t-138 261q0 249 262 362q113 48 146.5 70.5t33.5 46.5q0 33 -65 33q-13 0 -45 -4q-3 -1 -8 -1q-21 0 -37.5 17.5t-16.5 38.5q0 41 37 51q89 27 187 27q128 0 203 -60t75 -153q0 -148 -180 -252 q-58 -34 -85.5 -71.5t-27.5 -90.5q0 -41 25.5 -67.5t71.5 -26.5q33 0 61 18.5t43 44.5q57 92 145 92q68 0 114 -46t46 -113zM584 975q103 0 174 -59.5t71 -153.5t-71 -154.5t-174 -60.5t-174.5 60.5t-71.5 154.5t71.5 153.5t174.5 59.5z" />
<glyph unicode="&#xc0;" horiz-adv-x="1490" d="M113 188q0 40 24 101l424 1032q24 59 73 96t111 37q61 0 112 -37.5t75 -95.5l426 -1042q20 -48 20 -91q0 -88 -63 -150.5t-152 -62.5q-69 0 -124.5 38t-75.5 100l-25 75h-387l-23 -67q-22 -65 -77 -105.5t-125 -40.5q-88 0 -150.5 62.5t-62.5 150.5zM745 805l-108 -334 h217zM449 1821q0 53 36 90t88 37q48 0 86 -33l185 -139q57 -43 57 -107q0 -51 -36 -86t-87 -35q-37 0 -71 23l-195 139q-63 46 -63 111z" />
<glyph unicode="&#xc1;" horiz-adv-x="1490" d="M113 188q0 40 24 101l424 1032q24 59 73 96t111 37q61 0 112 -37.5t75 -95.5l426 -1042q20 -48 20 -91q0 -88 -63 -150.5t-152 -62.5q-69 0 -124.5 38t-75.5 100l-25 75h-387l-23 -67q-22 -65 -77 -105.5t-125 -40.5q-88 0 -150.5 62.5t-62.5 150.5zM745 805l-108 -334 h217zM1042 1821q0 -65 -63 -111l-195 -139q-34 -23 -71 -23q-51 0 -87 35t-36 86q0 64 57 107l184 139q46 33 87 33q52 0 88 -37t36 -90z" />
<glyph unicode="&#xc2;" horiz-adv-x="1490" d="M113 188q0 40 24 101l424 1032q24 59 73 96t111 37q61 0 112 -37.5t75 -95.5l426 -1042q20 -48 20 -91q0 -88 -63 -150.5t-152 -62.5q-69 0 -124.5 38t-75.5 100l-25 75h-387l-23 -67q-22 -65 -77 -105.5t-125 -40.5q-88 0 -150.5 62.5t-62.5 150.5zM745 805l-108 -334 h217zM387 1640q0 -51 35 -86.5t86 -35.5q40 0 84 32l153 113l164 -121q34 -24 74 -24q51 0 87 35.5t36 86.5q0 59 -51 99l-250 188q-27 19 -60 19q-39 0 -63 -21l-246 -186q-49 -39 -49 -99z" />
<glyph unicode="&#xc3;" horiz-adv-x="1490" d="M113 188q0 40 24 101l424 1032q24 59 73 96t111 37q61 0 112 -37.5t75 -95.5l426 -1042q20 -48 20 -91q0 -88 -63 -150.5t-152 -62.5q-69 0 -124.5 38t-75.5 100l-25 75h-387l-23 -67q-22 -65 -77 -105.5t-125 -40.5q-88 0 -150.5 62.5t-62.5 150.5zM745 805l-108 -334 h217zM383 1690q0 12 4 32q28 95 84.5 146t138.5 51q81 0 166 -68q48 -39 78 -39t41 29q12 30 40.5 50t61.5 20q44 0 77.5 -33.5t33.5 -77.5q0 -20 -6 -35q-59 -190 -219 -190q-83 0 -166 67q-48 39 -78 39q-29 0 -43 -32q-14 -31 -41.5 -50.5t-60.5 -19.5q-44 0 -77.5 33.5 t-33.5 77.5z" />
<glyph unicode="&#xc4;" horiz-adv-x="1490" d="M113 188q0 40 24 101l424 1032q24 59 73 96t111 37q61 0 112 -37.5t75 -95.5l426 -1042q20 -48 20 -91q0 -88 -63 -150.5t-152 -62.5q-69 0 -124.5 38t-75.5 100l-25 75h-387l-23 -67q-22 -65 -77 -105.5t-125 -40.5q-88 0 -150.5 62.5t-62.5 150.5zM745 805l-108 -334 h217zM377 1747q0 65 45.5 110.5t109.5 45.5t110 -45.5t46 -110.5t-46 -110.5t-110 -45.5t-109.5 45.5t-45.5 110.5zM803 1747q0 65 45.5 110.5t109.5 45.5t110 -45.5t46 -110.5t-46 -110.5t-110 -45.5t-109.5 45.5t-45.5 110.5z" />
<glyph unicode="&#xc5;" horiz-adv-x="1490" d="M113 188q0 40 24 101l424 1032q24 59 73 96t111 37q61 0 112 -37.5t75 -95.5l426 -1042q20 -48 20 -91q0 -88 -63 -150.5t-152 -62.5q-69 0 -124.5 38t-75.5 100l-25 75h-387l-23 -67q-22 -65 -77 -105.5t-125 -40.5q-88 0 -150.5 62.5t-62.5 150.5zM745 805l-108 -334 h217zM508 1716q0 98 70 164t167 66t167.5 -66t70.5 -164t-70.5 -163.5t-167.5 -65.5t-167 65.5t-70 163.5zM682 1716q0 -28 17.5 -46.5t45.5 -18.5t46 18.5t18 46.5t-18 47t-46 19q-27 0 -45 -19t-18 -47z" />
<glyph unicode="&#xc6;" horiz-adv-x="1886" d="M123 174q0 53 39 125l555 1014q31 56 87.5 88.5t123.5 32.5h733q71 0 121.5 -51t50.5 -121t-50.5 -121t-121.5 -51h-285v-187h244q70 0 121 -50.5t51 -121.5t-51 -121.5t-121 -50.5h-244v-215h301q71 0 121.5 -51t50.5 -121t-50.5 -121t-121.5 -51h-614 q-60 0 -100.5 40.5t-40.5 100.5v47h-326l-61 -114q-28 -53 -80.5 -85t-114.5 -32q-91 0 -154 63t-63 154zM922 471v338l-174 -338h174z" />
<glyph unicode="&#xc7;" horiz-adv-x="1538" d="M678 -162q0 17 6 29l53 115q-135 16 -256 76t-212.5 153.5t-145 224.5t-53.5 281q0 130 40.5 247t113 206t168 154.5t209 99.5t233.5 34q151 0 274 -42.5t205 -98.5q42 -28 67 -74.5t25 -99.5q0 -86 -61.5 -147.5t-147.5 -61.5q-73 0 -147 57q-83 62 -203 62 q-129 0 -225.5 -95t-96.5 -241t96.5 -241t225.5 -95t214 69q59 50 136 50q86 0 147.5 -61.5t61.5 -147.5q0 -111 -99 -179q-147 -98 -341 -126l-39 -84q55 -19 86.5 -64t31.5 -110q0 -92 -71 -153.5t-180 -61.5q-64 0 -125 14q-33 8 -55.5 35.5t-22.5 60.5q0 39 27.5 66.5 t66.5 27.5q15 0 23 -2q20 -4 30 -4q41 0 41 31q0 34 -53 41q-21 3 -34 18.5t-13 36.5z" />
<glyph unicode="&#xc8;" horiz-adv-x="1107" d="M123 141v1147q0 60 40.5 103t100.5 43h619q71 0 121.5 -51t50.5 -121t-50.5 -121t-121.5 -51h-285v-187h244q70 0 121 -50.5t51 -121.5t-51 -121.5t-121 -50.5h-244v-215h301q71 0 121.5 -51t50.5 -121t-50.5 -121t-121.5 -51h-635q-60 0 -100.5 40.5t-40.5 100.5z M326 1821q0 53 36.5 90t88.5 37q48 0 86 -33l184 -139q57 -43 57 -107q0 -51 -36 -86t-87 -35q-37 0 -71 23l-195 139q-63 46 -63 111z" />
<glyph unicode="&#xc9;" horiz-adv-x="1107" d="M123 141v1147q0 60 40.5 103t100.5 43h619q71 0 121.5 -51t50.5 -121t-50.5 -121t-121.5 -51h-285v-187h244q70 0 121 -50.5t51 -121.5t-51 -121.5t-121 -50.5h-244v-215h301q71 0 121.5 -51t50.5 -121t-50.5 -121t-121.5 -51h-635q-60 0 -100.5 40.5t-40.5 100.5z M813 1821q0 -65 -63 -111l-195 -139q-34 -23 -72 -23q-51 0 -87 35t-36 86q0 63 58 107l184 139q46 33 86 33q52 0 88.5 -37t36.5 -90z" />
<glyph unicode="&#xca;" horiz-adv-x="1107" d="M123 141v1147q0 60 40.5 103t100.5 43h619q71 0 121.5 -51t50.5 -121t-50.5 -121t-121.5 -51h-285v-187h244q70 0 121 -50.5t51 -121.5t-51 -121.5t-121 -50.5h-244v-215h301q71 0 121.5 -51t50.5 -121t-50.5 -121t-121.5 -51h-635q-60 0 -100.5 40.5t-40.5 100.5z M203 1642q0 -51 35 -86.5t86 -35.5q40 0 84 32l153 113l164 -121q34 -24 74 -24q51 0 87 35.5t36 86.5q0 58 -52 99l-249 188q-27 19 -60 19q-39 0 -63 -21l-246 -186q-49 -39 -49 -99z" />
<glyph unicode="&#xcb;" horiz-adv-x="1107" d="M123 141v1147q0 60 40.5 103t100.5 43h619q71 0 121.5 -51t50.5 -121t-50.5 -121t-121.5 -51h-285v-187h244q70 0 121 -50.5t51 -121.5t-51 -121.5t-121 -50.5h-244v-215h301q71 0 121.5 -51t50.5 -121t-50.5 -121t-121.5 -51h-635q-60 0 -100.5 40.5t-40.5 100.5z M193 1747q0 65 45.5 110.5t109.5 45.5t110 -45.5t46 -110.5t-46 -110.5t-110 -45.5t-109.5 45.5t-45.5 110.5zM618 1747q0 65 46 110.5t110 45.5t110 -45.5t46 -110.5t-46 -110.5t-110 -45.5t-110 45.5t-46 110.5z" />
<glyph unicode="&#xcc;" horiz-adv-x="753" d="M139 213v1008q0 98 70 167.5t168 69.5t167.5 -69.5t69.5 -167.5v-1008q0 -98 -69.5 -168t-167.5 -70t-168 70t-70 168zM119 1821q0 53 36.5 90t88.5 37q48 0 86 -33l184 -139q57 -43 57 -107q0 -51 -35.5 -86t-86.5 -35q-38 0 -72 23l-195 139q-63 46 -63 111z" />
<glyph unicode="&#xcd;" horiz-adv-x="753" d="M139 213v1008q0 98 70 167.5t168 69.5t167.5 -69.5t69.5 -167.5v-1008q0 -98 -69.5 -168t-167.5 -70t-168 70t-70 168zM635 1821q0 -64 -64 -111l-194 -139q-34 -23 -72 -23q-51 0 -87 35t-36 86q0 63 58 107l184 139q46 33 86 33q52 0 88.5 -37t36.5 -90z" />
<glyph unicode="&#xce;" horiz-adv-x="753" d="M139 213v1008q0 98 70 167.5t168 69.5t167.5 -69.5t69.5 -167.5v-1008q0 -98 -69.5 -168t-167.5 -70t-168 70t-70 168zM18 1642q0 -51 35 -86.5t86 -35.5q40 0 84 32l154 113l164 -121q34 -24 73 -24q51 0 87 35.5t36 86.5q0 59 -51 99l-250 188q-27 19 -59 19 q-39 0 -64 -21l-245 -186q-50 -40 -50 -99z" />
<glyph unicode="&#xcf;" horiz-adv-x="753" d="M139 213v1008q0 98 70 167.5t168 69.5t167.5 -69.5t69.5 -167.5v-1008q0 -98 -69.5 -168t-167.5 -70t-168 70t-70 168zM8 1747q0 65 46 110.5t110 45.5t109.5 -45.5t45.5 -110.5t-45.5 -110.5t-109.5 -45.5t-110 45.5t-46 110.5zM434 1747q0 65 46 110.5t110 45.5 t109.5 -45.5t45.5 -110.5t-45.5 -110.5t-109.5 -45.5t-110 45.5t-46 110.5z" />
<glyph unicode="&#xd0;" horiz-adv-x="1480" d="M176 141v463h-33q-46 0 -78 32.5t-32 78.5t32 78t78 32h33v463q0 60 40.5 103t100.5 43h330q161 0 301.5 -51.5t242.5 -143.5t161 -227t59 -295t-59 -295t-161 -227t-242.5 -143.5t-301.5 -51.5h-330q-60 0 -100.5 40.5t-40.5 100.5zM641 1028v-203h66q46 0 78 -32 t32 -78t-32 -78.5t-78 -32.5h-66v-198h21q135 0 209.5 80t74.5 231t-74.5 231t-209.5 80h-21z" />
<glyph unicode="&#xd1;" horiz-adv-x="1511" d="M123 207v1081q0 71 49 120.5t119 49.5q85 0 131 -55l502 -584v406q0 97 67 165t164 68t165.5 -68t68.5 -165v-1082q0 -70 -49.5 -119t-120.5 -49q-85 0 -132 56l-499 583v-407q0 -97 -68.5 -164.5t-165.5 -67.5t-164 67.5t-67 164.5zM393 1690q0 12 4 32q28 95 85 146 t139 51q80 0 165 -68q48 -39 78 -39t41 29q12 30 41 50t62 20q44 0 77 -33.5t33 -77.5q0 -20 -6 -35q-59 -190 -219 -190q-83 0 -166 67q-48 39 -78 39q-29 0 -43 -32q-14 -31 -41.5 -50.5t-60.5 -19.5q-44 0 -77.5 33.5t-33.5 77.5z" />
<glyph unicode="&#xd2;" horiz-adv-x="1699" d="M70 717q0 160 63.5 299.5t170 235.5t248.5 151t298 55t298 -55t248.5 -151t170 -235.5t63.5 -299.5t-63.5 -299.5t-170 -235.5t-248.5 -151.5t-298 -55.5t-298 55.5t-248.5 151.5t-170 235.5t-63.5 299.5zM524 717q0 -144 95 -240t235 -96t235 96t95 240t-95 240t-235 96 t-235 -96t-95 -240zM557 1821q0 53 36.5 90t88.5 37q48 0 86 -33l184 -139q58 -44 58 -107q0 -51 -36 -86t-87 -35q-38 0 -72 23l-194 139q-64 47 -64 111z" />
<glyph unicode="&#xd3;" horiz-adv-x="1699" d="M70 717q0 160 63.5 299.5t170 235.5t248.5 151t298 55t298 -55t248.5 -151t170 -235.5t63.5 -299.5t-63.5 -299.5t-170 -235.5t-248.5 -151.5t-298 -55.5t-298 55.5t-248.5 151.5t-170 235.5t-63.5 299.5zM524 717q0 -144 95 -240t235 -96t235 96t95 240t-95 240t-235 96 t-235 -96t-95 -240zM1143 1821q0 -64 -64 -111l-194 -139q-34 -23 -72 -23q-51 0 -87 35t-36 86q0 63 58 107l184 139q46 33 86 33q52 0 88.5 -37t36.5 -90z" />
<glyph unicode="&#xd4;" horiz-adv-x="1699" d="M70 717q0 160 63.5 299.5t170 235.5t248.5 151t298 55t298 -55t248.5 -151t170 -235.5t63.5 -299.5t-63.5 -299.5t-170 -235.5t-248.5 -151.5t-298 -55.5t-298 55.5t-248.5 151.5t-170 235.5t-63.5 299.5zM524 717q0 -144 95 -240t235 -96t235 96t95 240t-95 240t-235 96 t-235 -96t-95 -240zM492 1642q0 -51 34.5 -86.5t85.5 -35.5q40 0 84 32l154 113l164 -121q34 -24 73 -24q51 0 87 35.5t36 86.5q0 59 -51 99l-250 188q-27 19 -59 19q-40 0 -64 -21l-245 -186q-49 -39 -49 -99z" />
<glyph unicode="&#xd5;" horiz-adv-x="1699" d="M70 717q0 160 63.5 299.5t170 235.5t248.5 151t298 55t298 -55t248.5 -151t170 -235.5t63.5 -299.5t-63.5 -299.5t-170 -235.5t-248.5 -151.5t-298 -55.5t-298 55.5t-248.5 151.5t-170 235.5t-63.5 299.5zM524 717q0 -144 95 -240t235 -96t235 96t95 240t-95 240t-235 96 t-235 -96t-95 -240zM487 1690q0 7 5 32q28 95 84.5 146t138.5 51q81 0 166 -68q48 -39 77 -39q30 0 41 29q12 30 41 50t62 20q44 0 77 -33.5t33 -77.5q0 -20 -6 -35q-59 -190 -219 -190q-83 0 -166 67q-48 39 -78 39q-29 0 -43 -32q-14 -31 -41.5 -50.5t-60.5 -19.5 q-44 0 -77.5 33.5t-33.5 77.5z" />
<glyph unicode="&#xd6;" horiz-adv-x="1699" d="M70 717q0 160 63.5 299.5t170 235.5t248.5 151t298 55t298 -55t248.5 -151t170 -235.5t63.5 -299.5t-63.5 -299.5t-170 -235.5t-248.5 -151.5t-298 -55.5t-298 55.5t-248.5 151.5t-170 235.5t-63.5 299.5zM524 717q0 -144 95 -240t235 -96t235 96t95 240t-95 240t-235 96 t-235 -96t-95 -240zM481 1747q0 65 45.5 110.5t110.5 45.5t110.5 -45.5t45.5 -110.5t-45.5 -110.5t-110.5 -45.5t-110.5 45.5t-45.5 110.5zM907 1747q0 65 45.5 110.5t110.5 45.5t110.5 -45.5t45.5 -110.5t-45.5 -110.5t-110.5 -45.5t-110.5 45.5t-45.5 110.5z" />
<glyph unicode="&#xd7;" horiz-adv-x="1306" d="M166 965q0 85 60 144.5t145 59.5q84 0 155 -71l127 -127l127 127q71 71 156 71t145 -59.5t60 -144.5q0 -84 -72 -156l-127 -127l127 -127q72 -72 72 -156q0 -85 -60 -144.5t-145 -59.5t-156 71l-127 127l-127 -127q-71 -71 -155 -71q-85 0 -145 59.5t-60 144.5 q0 84 72 156l127 127l-127 127q-72 72 -72 156z" />
<glyph unicode="&#xd8;" horiz-adv-x="1699" d="M307 -129q0 23 12 41l103 180q-162 98 -257 261.5t-95 363.5q0 160 63.5 299.5t170 235.5t248.5 151t298 55q161 0 311 -61l117 205q16 28 53 28q26 0 45 -18.5t19 -44.5q0 -15 -9 -33l-110 -195q163 -98 258.5 -260t95.5 -362q0 -160 -63.5 -299.5t-170 -235.5 t-248.5 -151.5t-298 -55.5q-157 0 -313 60l-111 -197q-17 -31 -55 -31q-28 0 -46 18t-18 46zM854 381q140 0 235 96t95 240q0 158 -115 258l-326 -576q53 -18 111 -18zM524 717q0 -156 109 -254l323 573q-56 17 -102 17q-140 0 -235 -96t-95 -240z" />
<glyph unicode="&#xd9;" horiz-adv-x="1437" d="M719 -25q-117 0 -224 40t-190 113t-132.5 185t-49.5 246v662q0 98 69.5 167.5t167.5 69.5t168 -69.5t70 -167.5v-699q0 -67 31.5 -104t89.5 -37t89.5 37t31.5 104v699q0 98 69.5 167.5t167.5 69.5t168 -69.5t70 -167.5v-662q0 -134 -49.5 -246t-132.5 -185t-190 -113 t-224 -40zM442 1821q0 53 36.5 90t88.5 37q48 0 86 -33l185 -139q57 -43 57 -107q0 -51 -36 -86t-87 -35q-38 0 -72 23l-194 139q-64 47 -64 111z" />
<glyph unicode="&#xda;" horiz-adv-x="1437" d="M719 -25q-117 0 -224 40t-190 113t-132.5 185t-49.5 246v662q0 98 69.5 167.5t167.5 69.5t168 -69.5t70 -167.5v-699q0 -67 31.5 -104t89.5 -37t89.5 37t31.5 104v699q0 98 69.5 167.5t167.5 69.5t168 -69.5t70 -167.5v-662q0 -134 -49.5 -246t-132.5 -185t-190 -113 t-224 -40zM995 1821q0 -65 -63 -111l-195 -139q-34 -23 -71 -23q-51 0 -87 35t-36 86q0 64 57 107l184 139q46 33 86 33q52 0 88.5 -37t36.5 -90z" />
<glyph unicode="&#xdb;" horiz-adv-x="1437" d="M719 -25q-117 0 -224 40t-190 113t-132.5 185t-49.5 246v662q0 98 69.5 167.5t167.5 69.5t168 -69.5t70 -167.5v-699q0 -67 31.5 -104t89.5 -37t89.5 37t31.5 104v699q0 98 69.5 167.5t167.5 69.5t168 -69.5t70 -167.5v-662q0 -134 -49.5 -246t-132.5 -185t-190 -113 t-224 -40zM360 1642q0 -51 35 -86.5t86 -35.5q40 0 84 32l154 113l164 -121q34 -24 73 -24q51 0 87 35.5t36 86.5q0 59 -51 99l-250 188q-27 19 -59 19q-39 0 -64 -21l-245 -186q-50 -40 -50 -99z" />
<glyph unicode="&#xdc;" horiz-adv-x="1437" d="M719 -25q-117 0 -224 40t-190 113t-132.5 185t-49.5 246v662q0 98 69.5 167.5t167.5 69.5t168 -69.5t70 -167.5v-699q0 -67 31.5 -104t89.5 -37t89.5 37t31.5 104v699q0 98 69.5 167.5t167.5 69.5t168 -69.5t70 -167.5v-662q0 -134 -49.5 -246t-132.5 -185t-190 -113 t-224 -40zM350 1747q0 65 46 110.5t110 45.5t110 -45.5t46 -110.5t-46 -110.5t-110 -45.5t-110 45.5t-46 110.5zM776 1747q0 65 46 110.5t110 45.5t109.5 -45.5t45.5 -110.5t-45.5 -110.5t-109.5 -45.5t-110 45.5t-46 110.5z" />
<glyph unicode="&#xdd;" horiz-adv-x="1511" d="M145 1237q0 92 64.5 156.5t155.5 64.5q66 0 119.5 -38t84.5 -99l187 -371l186 371q31 61 84 99t119 38q92 0 156.5 -64.5t64.5 -156.5q0 -61 -27 -107l-346 -595v-322q0 -98 -69.5 -168t-167.5 -70t-168 70t-70 168v322l-344 593q-29 50 -29 109zM1067 1821 q0 -65 -63 -111l-195 -139q-34 -23 -72 -23q-51 0 -87 35t-36 86q0 63 58 107l184 139q46 33 86 33q52 0 88.5 -37t36.5 -90z" />
<glyph unicode="&#xde;" horiz-adv-x="1316" d="M123 176v1081q0 94 66.5 161t160.5 67t161 -67t67 -161v-10h112q160 0 291 -61t211 -182.5t80 -282.5t-80 -282.5t-211 -182.5t-291 -61h-112v-19q0 -94 -67 -160.5t-161 -66.5t-160.5 66.5t-66.5 160.5zM817 721q0 72 -50.5 106.5t-139.5 34.5h-49v-282h49 q89 0 139.5 34.5t50.5 106.5z" />
<glyph unicode="&#xdf;" horiz-adv-x="1282" d="M604 805q0 51 23.5 95.5t64.5 73.5q47 31 47 97q0 45 -31 74t-77 29q-48 0 -80.5 -35t-32.5 -92v-877q0 -83 -58 -140t-141 -57t-139.5 57t-56.5 140v846q0 242 138 381t372 139q105 0 195 -34t150 -91.5t94 -133t34 -157.5q0 -192 -141 -303q133 -57 202.5 -162.5 t69.5 -253.5q0 -192 -127.5 -309t-327.5 -117q-24 0 -34 2q-81 9 -135 63t-54 132q0 84 49 136t127 61q109 14 109 92q0 103 -115 156q-55 25 -90 75.5t-35 112.5z" />
<glyph unicode="&#xe0;" d="M799 113q-54 -66 -132 -102t-165 -36q-194 0 -317.5 144t-123.5 360t123.5 360t317.5 144q85 0 163.5 -35t133.5 -94q38 129 205 129q84 0 144 -56.5t60 -131.5v-641q0 -74 -59.5 -126.5t-144.5 -52.5q-76 0 -130.5 35.5t-74.5 102.5zM758 479q0 60 -42 102t-102 42 t-101.5 -42t-41.5 -102t41.5 -101.5t101.5 -41.5t102 41.5t42 101.5zM430 1362q0 53 36.5 90t88.5 37q48 0 86 -33l184 -139q58 -44 58 -107q0 -51 -36 -85.5t-87 -34.5q-40 0 -72 22l-194 139q-64 47 -64 111z" />
<glyph unicode="&#xe1;" d="M799 113q-54 -66 -132 -102t-165 -36q-194 0 -317.5 144t-123.5 360t123.5 360t317.5 144q85 0 163.5 -35t133.5 -94q38 129 205 129q84 0 144 -56.5t60 -131.5v-641q0 -74 -59.5 -126.5t-144.5 -52.5q-76 0 -130.5 35.5t-74.5 102.5zM758 479q0 60 -42 102t-102 42 t-101.5 -42t-41.5 -102t41.5 -101.5t101.5 -41.5t102 41.5t42 101.5zM913 1362q0 -65 -63 -111l-195 -139q-32 -22 -71 -22q-51 0 -87 34.5t-36 85.5q0 64 57 107l184 139q46 33 86 33q52 0 88.5 -37t36.5 -90z" />
<glyph unicode="&#xe2;" d="M799 113q-54 -66 -132 -102t-165 -36q-194 0 -317.5 144t-123.5 360t123.5 360t317.5 144q85 0 163.5 -35t133.5 -94q38 129 205 129q84 0 144 -56.5t60 -131.5v-641q0 -74 -59.5 -126.5t-144.5 -52.5q-76 0 -130.5 35.5t-74.5 102.5zM758 479q0 60 -42 102t-102 42 t-101.5 -42t-41.5 -102t41.5 -101.5t101.5 -41.5t102 41.5t42 101.5zM324 1214q0 -51 34.5 -86.5t85.5 -35.5q40 0 84 32l154 113l164 -121q34 -24 74 -24q51 0 86.5 35.5t35.5 86.5q0 59 -51 99l-250 188q-27 19 -59 19q-40 0 -64 -21l-245 -186q-49 -39 -49 -99z" />
<glyph unicode="&#xe3;" d="M799 113q-54 -66 -132 -102t-165 -36q-194 0 -317.5 144t-123.5 360t123.5 360t317.5 144q85 0 163.5 -35t133.5 -94q38 129 205 129q84 0 144 -56.5t60 -131.5v-641q0 -74 -59.5 -126.5t-144.5 -52.5q-76 0 -130.5 35.5t-74.5 102.5zM758 479q0 60 -42 102t-102 42 t-101.5 -42t-41.5 -102t41.5 -101.5t101.5 -41.5t102 41.5t42 101.5zM319 1231q0 8 5 33q58 196 223 196q83 0 166 -67q48 -39 78 -39q29 0 40 28q12 30 41 50t62 20q44 0 77 -33.5t33 -77.5q0 -19 -6 -34q-59 -191 -219 -191q-81 0 -166 68q-48 39 -78 39q-28 0 -43 -33 q-14 -31 -41.5 -50.5t-60.5 -19.5q-44 0 -77.5 33.5t-33.5 77.5z" />
<glyph unicode="&#xe4;" d="M799 113q-54 -66 -132 -102t-165 -36q-194 0 -317.5 144t-123.5 360t123.5 360t317.5 144q85 0 163.5 -35t133.5 -94q38 129 205 129q84 0 144 -56.5t60 -131.5v-641q0 -74 -59.5 -126.5t-144.5 -52.5q-76 0 -130.5 35.5t-74.5 102.5zM758 479q0 60 -42 102t-102 42 t-101.5 -42t-41.5 -102t41.5 -101.5t101.5 -41.5t102 41.5t42 101.5zM313 1288q0 64 45.5 110t110.5 46t110.5 -46t45.5 -110t-45.5 -109.5t-110.5 -45.5t-110.5 45.5t-45.5 109.5zM739 1288q0 64 45.5 110t110.5 46t110.5 -46t45.5 -110t-45.5 -109.5t-110.5 -45.5 t-110.5 45.5t-45.5 109.5z" />
<glyph unicode="&#xe5;" d="M799 113q-54 -66 -132 -102t-165 -36q-194 0 -317.5 144t-123.5 360t123.5 360t317.5 144q85 0 163.5 -35t133.5 -94q38 129 205 129q84 0 144 -56.5t60 -131.5v-641q0 -74 -59.5 -126.5t-144.5 -52.5q-76 0 -130.5 35.5t-74.5 102.5zM758 479q0 60 -42 102t-102 42 t-101.5 -42t-41.5 -102t41.5 -101.5t101.5 -41.5t102 41.5t42 101.5zM444 1288q0 98 70.5 164t167.5 66t167.5 -66t70.5 -164t-70.5 -163.5t-167.5 -65.5t-167.5 65.5t-70.5 163.5zM618 1288q0 -28 18 -46.5t46 -18.5t45.5 18.5t17.5 46.5t-18 47t-45 19q-28 0 -46 -19 t-18 -47z" />
<glyph unicode="&#xe6;" horiz-adv-x="1773" d="M1208 262q85 0 150 43q68 41 104 41q65 0 109.5 -42.5t44.5 -106.5q0 -75 -92 -134q-139 -88 -320 -88q-105 0 -191 37t-141 103q-60 -66 -156 -103t-208 -37q-211 0 -324.5 88t-113.5 234q0 144 93 232.5t232 88.5q154 0 244 -90v27q0 170 -193 170q-66 0 -139 -25 q-32 -12 -55 -12q-51 0 -86 35t-35 86q0 39 22.5 69.5t61.5 45.5q152 59 328 59q228 0 331 -129q58 59 143 94t187 35q106 0 201.5 -41t162 -107.5t105.5 -151.5t39 -171v-6q0 -46 -32 -77.5t-78 -31.5h-553q6 -66 52 -100.5t107 -34.5zM467 297q0 -37 26.5 -63.5 t63.5 -26.5t63.5 26.5t26.5 63.5t-26.5 63.5t-63.5 26.5t-63.5 -26.5t-26.5 -63.5zM1194 725q-55 0 -92 -27t-51 -75h286q-14 48 -51 75t-92 27z" />
<glyph unicode="&#xe7;" horiz-adv-x="1073" d="M420 -162q0 17 6 29l55 117q-183 33 -305.5 171.5t-122.5 323.5q0 138 71.5 254t192 183t261.5 67q166 0 311 -88q39 -23 62.5 -65t23.5 -89q0 -74 -52.5 -126t-127.5 -52q-53 0 -103 31q-37 29 -90 29q-60 0 -101.5 -42t-41.5 -102t41.5 -101.5t101.5 -41.5q50 0 90 29 q38 30 103 30q75 0 127.5 -52.5t52.5 -127.5q0 -46 -24.5 -88t-63.5 -66q-80 -49 -176 -69l-43 -90q55 -19 86.5 -64t31.5 -110q0 -92 -71 -153.5t-180 -61.5q-64 0 -125 14q-33 8 -55.5 35.5t-22.5 60.5q0 39 27.5 66.5t66.5 27.5q15 0 23 -2q20 -4 30 -4q41 0 41 31 q0 34 -53 41q-21 3 -34 18.5t-13 36.5z" />
<glyph unicode="&#xe8;" horiz-adv-x="1189" d="M625 262q84 0 149 43q68 41 105 41q65 0 109 -42.5t44 -106.5q0 -75 -92 -134q-139 -88 -340 -88q-151 0 -277 67t-198 183t-72 254t72 254t198 183t277 67q106 0 205 -41.5t169 -107.5t112 -151t42 -171v-6q0 -46 -32 -77.5t-78 -31.5h-553q6 -66 52.5 -100.5 t107.5 -34.5zM610 725q-55 0 -92 -27t-51 -75h287q-14 48 -51.5 75t-92.5 27zM336 1362q0 53 36.5 90t88.5 37q48 0 86 -33l184 -139q57 -43 57 -107q0 -51 -35.5 -85.5t-86.5 -34.5q-40 0 -72 22l-195 139q-63 46 -63 111z" />
<glyph unicode="&#xe9;" horiz-adv-x="1189" d="M625 262q84 0 149 43q68 41 105 41q65 0 109 -42.5t44 -106.5q0 -75 -92 -134q-139 -88 -340 -88q-151 0 -277 67t-198 183t-72 254t72 254t198 183t277 67q106 0 205 -41.5t169 -107.5t112 -151t42 -171v-6q0 -46 -32 -77.5t-78 -31.5h-553q6 -66 52.5 -100.5 t107.5 -34.5zM610 725q-55 0 -92 -27t-51 -75h287q-14 48 -51.5 75t-92.5 27zM831 1362q0 -65 -63 -111l-195 -139q-32 -22 -71 -22q-51 0 -87 34.5t-36 85.5q0 64 57 107l185 139q46 33 86 33q52 0 88 -37t36 -90z" />
<glyph unicode="&#xea;" horiz-adv-x="1189" d="M625 262q84 0 149 43q68 41 105 41q65 0 109 -42.5t44 -106.5q0 -75 -92 -134q-139 -88 -340 -88q-151 0 -277 67t-198 183t-72 254t72 254t198 183t277 67q106 0 205 -41.5t169 -107.5t112 -151t42 -171v-6q0 -46 -32 -77.5t-78 -31.5h-553q6 -66 52.5 -100.5 t107.5 -34.5zM610 725q-55 0 -92 -27t-51 -75h287q-14 48 -51.5 75t-92.5 27zM221 1214q0 -51 35 -86.5t86 -35.5q40 0 84 32l154 113l163 -121q34 -24 74 -24q51 0 87 35.5t36 86.5q0 59 -51 99l-250 188q-27 19 -59 19q-40 0 -64 -21l-246 -186q-49 -39 -49 -99z" />
<glyph unicode="&#xeb;" horiz-adv-x="1189" d="M625 262q84 0 149 43q68 41 105 41q65 0 109 -42.5t44 -106.5q0 -75 -92 -134q-139 -88 -340 -88q-151 0 -277 67t-198 183t-72 254t72 254t198 183t277 67q106 0 205 -41.5t169 -107.5t112 -151t42 -171v-6q0 -46 -32 -77.5t-78 -31.5h-553q6 -66 52.5 -100.5 t107.5 -34.5zM610 725q-55 0 -92 -27t-51 -75h287q-14 48 -51.5 75t-92.5 27zM211 1288q0 64 45.5 110t110.5 46q64 0 109.5 -45.5t45.5 -110.5q0 -64 -45 -109.5t-110 -45.5t-110.5 45.5t-45.5 109.5zM637 1288q0 64 45.5 110t110.5 46q64 0 109.5 -45.5t45.5 -110.5 q0 -64 -45 -109.5t-110 -45.5t-110.5 45.5t-45.5 109.5z" />
<glyph unicode="&#xec;" horiz-adv-x="638" d="M115 180v598q0 85 59.5 145t144.5 60t145 -60t60 -145v-598q0 -85 -60 -145t-145 -60t-144.5 60t-59.5 145zM61 1362q0 53 36.5 90t88.5 37q48 0 86 -33l185 -139q57 -43 57 -107q0 -51 -36 -85.5t-87 -34.5q-40 0 -72 22l-194 139q-64 47 -64 111z" />
<glyph unicode="&#xed;" horiz-adv-x="638" d="M115 180v598q0 85 59.5 145t144.5 60t145 -60t60 -145v-598q0 -85 -60 -145t-145 -60t-144.5 60t-59.5 145zM578 1362q0 -64 -64 -111l-195 -139q-32 -22 -71 -22q-51 0 -87 34.5t-36 85.5q0 64 57 107l185 139q46 33 86 33q52 0 88.5 -37t36.5 -90z" />
<glyph unicode="&#xee;" horiz-adv-x="638" d="M115 180v598q0 85 59.5 145t144.5 60t145 -60t60 -145v-598q0 -85 -60 -145t-145 -60t-144.5 60t-59.5 145zM-39 1214q0 -51 35 -86.5t86 -35.5q40 0 84 32l153 113l164 -121q34 -24 74 -24q51 0 87 35.5t36 86.5q0 59 -51 99l-250 188q-27 19 -60 19q-39 0 -63 -21 l-246 -186q-49 -39 -49 -99z" />
<glyph unicode="&#xef;" horiz-adv-x="638" d="M115 180v598q0 85 59.5 145t144.5 60t145 -60t60 -145v-598q0 -85 -60 -145t-145 -60t-144.5 60t-59.5 145zM-49 1288q0 65 45.5 110.5t109.5 45.5t110 -46t46 -110t-45.5 -109.5t-110.5 -45.5q-64 0 -109.5 45.5t-45.5 109.5zM377 1288q0 65 45.5 110.5t109.5 45.5 t110 -46t46 -110t-45.5 -109.5t-110.5 -45.5q-64 0 -109.5 45.5t-45.5 109.5z" />
<glyph unicode="&#xf0;" horiz-adv-x="1210" d="M211 1081q0 41 31 60l69 39q-71 61 -71 145q0 78 56.5 135.5t133.5 57.5q47 0 96 -27q124 -74 162 -102l121 67q18 12 41 12q29 0 49.5 -20t20.5 -49q0 -20 -10.5 -37t-26.5 -25l-76 -43q342 -307 342 -753q0 -251 -152.5 -408.5t-386.5 -157.5q-229 0 -383.5 147.5 t-154.5 356.5q0 210 131 345t360 145q-36 63 -119 125l-125 -70q-24 -12 -38 -12q-29 0 -49.5 20t-20.5 49zM467 479q0 -60 41.5 -101.5t101.5 -41.5t102 41.5t42 101.5t-42 102t-102 42t-101.5 -42t-41.5 -102z" />
<glyph unicode="&#xf1;" horiz-adv-x="1202" d="M104 180v619q0 76 60 130t145 54q174 0 205 -131q41 54 119.5 92.5t157.5 38.5q144 0 226.5 -96.5t82.5 -286.5v-420q0 -85 -60 -145t-145 -60t-145 60t-60 145v359q0 42 -24.5 68t-63.5 26t-63.5 -26t-24.5 -68v-359q0 -85 -60 -145t-145 -60t-145 60t-60 145zM240 1231 q0 13 4 33q58 196 223 196q83 0 166 -67q48 -39 78 -39q31 0 41 28q12 30 40.5 50t61.5 20q44 0 77.5 -33.5t33.5 -77.5q0 -17 -7 -34q-59 -191 -219 -191q-81 0 -166 68q-48 39 -77 39q-28 0 -43 -33q-14 -31 -42 -50.5t-61 -19.5q-44 0 -77 33.5t-33 77.5z" />
<glyph unicode="&#xf2;" horiz-adv-x="1183" d="M53 479q0 209 155 356.5t384 147.5t383.5 -147.5t154.5 -356.5t-154.5 -356.5t-383.5 -147.5t-384 147.5t-155 356.5zM449 479q0 -60 41.5 -101.5t101.5 -41.5t101.5 41.5t41.5 101.5t-41.5 102t-101.5 42t-101.5 -42t-41.5 -102zM342 1362q0 53 36.5 90t88.5 37 q48 0 86 -33l184 -139q58 -44 58 -107q0 -51 -36 -85.5t-87 -34.5q-40 0 -72 22l-194 139q-64 47 -64 111z" />
<glyph unicode="&#xf3;" horiz-adv-x="1183" d="M53 479q0 209 155 356.5t384 147.5t383.5 -147.5t154.5 -356.5t-154.5 -356.5t-383.5 -147.5t-384 147.5t-155 356.5zM449 479q0 -60 41.5 -101.5t101.5 -41.5t101.5 41.5t41.5 101.5t-41.5 102t-101.5 42t-101.5 -42t-41.5 -102zM842 1362q0 -64 -64 -111l-194 -139 q-32 -22 -72 -22q-51 0 -87 34.5t-36 85.5q0 64 57 107l185 139q46 33 86 33q52 0 88.5 -37t36.5 -90z" />
<glyph unicode="&#xf4;" horiz-adv-x="1183" d="M53 479q0 209 155 356.5t384 147.5t383.5 -147.5t154.5 -356.5t-154.5 -356.5t-383.5 -147.5t-384 147.5t-155 356.5zM449 479q0 -60 41.5 -101.5t101.5 -41.5t101.5 41.5t41.5 101.5t-41.5 102t-101.5 42t-101.5 -42t-41.5 -102zM233 1214q0 -51 35 -86.5t86 -35.5 q40 0 84 32l154 113l164 -121q34 -24 73 -24q51 0 87 35.5t36 86.5q0 59 -51 99l-250 188q-27 19 -59 19q-40 0 -64 -21l-245 -186q-50 -40 -50 -99z" />
<glyph unicode="&#xf5;" horiz-adv-x="1183" d="M53 479q0 209 155 356.5t384 147.5t383.5 -147.5t154.5 -356.5t-154.5 -356.5t-383.5 -147.5t-384 147.5t-155 356.5zM449 479q0 -60 41.5 -101.5t101.5 -41.5t101.5 41.5t41.5 101.5t-41.5 102t-101.5 42t-101.5 -42t-41.5 -102zM229 1231q0 13 4 33q28 95 85 145.5 t139 50.5q83 0 166 -67q48 -39 77 -39q30 0 41 28q12 30 41 50t62 20q44 0 77 -33.5t33 -77.5q0 -19 -6 -34q-59 -191 -219 -191q-81 0 -166 68q-48 39 -78 39q-28 0 -43 -33q-14 -31 -41.5 -50.5t-60.5 -19.5q-44 0 -77.5 33.5t-33.5 77.5z" />
<glyph unicode="&#xf6;" horiz-adv-x="1183" d="M53 479q0 209 155 356.5t384 147.5t383.5 -147.5t154.5 -356.5t-154.5 -356.5t-383.5 -147.5t-384 147.5t-155 356.5zM449 479q0 -60 41.5 -101.5t101.5 -41.5t101.5 41.5t41.5 101.5t-41.5 102t-101.5 42t-101.5 -42t-41.5 -102zM223 1288q0 64 45.5 110t110.5 46 t110.5 -46t45.5 -110t-45.5 -109.5t-110.5 -45.5t-110.5 45.5t-45.5 109.5zM649 1288q0 64 45.5 110t110.5 46t110.5 -46t45.5 -110t-45.5 -109.5t-110.5 -45.5t-110.5 45.5t-45.5 109.5z" />
<glyph unicode="&#xf7;" horiz-adv-x="1306" d="M82 680q0 70 50 120t120 50h803q71 0 120.5 -50t49.5 -120t-49.5 -120t-120.5 -50h-803q-70 0 -120 50t-50 120zM449 1126q0 86 58 145.5t146 59.5t146.5 -59.5t58.5 -145.5t-58.5 -145t-146.5 -59t-146 59t-58 145zM858 233q0 -86 -58.5 -145t-146.5 -59t-146 59 t-58 145t58 145.5t146 59.5t146.5 -59.5t58.5 -145.5z" />
<glyph unicode="&#xf8;" horiz-adv-x="1183" d="M172 -160q0 20 8 31l107 188q-109 70 -171.5 180.5t-62.5 239.5q0 209 155 356.5t384 147.5q106 0 196 -35l113 199q18 33 53 33q25 0 42.5 -17.5t17.5 -42.5q0 -14 -8 -30l-109 -193q108 -68 170.5 -179t62.5 -239q0 -209 -154.5 -356.5t-383.5 -147.5q-98 0 -199 33 l-108 -192q-19 -35 -54 -35q-25 0 -42 17t-17 42zM432 479q0 -56 35 -100l145 258q-6 2 -20 2q-66 0 -113 -47t-47 -113zM569 319h23q66 0 113 47t47 113q0 52 -35 99z" />
<glyph unicode="&#xf9;" horiz-adv-x="1204" d="M1100 778v-618q0 -76 -60 -130.5t-145 -54.5q-77 0 -132.5 33.5t-72.5 97.5q-41 -54 -119 -92.5t-157 -38.5q-144 0 -227 96.5t-83 286.5v420q0 85 60 145t145 60t145 -60t60 -145v-358q0 -42 24.5 -68t63.5 -26t63.5 26t24.5 68v358q0 85 60 145t145 60t145 -60t60 -145 zM348 1362q0 53 36.5 90t88.5 37q48 0 86 -33l184 -139q58 -44 58 -107q0 -51 -36 -85.5t-87 -34.5q-40 0 -72 22l-194 139q-64 47 -64 111z" />
<glyph unicode="&#xfa;" horiz-adv-x="1204" d="M1100 778v-618q0 -76 -60 -130.5t-145 -54.5q-77 0 -132.5 33.5t-72.5 97.5q-41 -54 -119 -92.5t-157 -38.5q-144 0 -227 96.5t-83 286.5v420q0 85 60 145t145 60t145 -60t60 -145v-358q0 -42 24.5 -68t63.5 -26t63.5 26t24.5 68v358q0 85 60 145t145 60t145 -60t60 -145 zM856 1362q0 -65 -63 -111l-195 -139q-32 -22 -72 -22q-51 0 -87 34.5t-36 85.5q0 63 58 107l184 139q46 33 86 33q52 0 88.5 -37t36.5 -90z" />
<glyph unicode="&#xfb;" horiz-adv-x="1204" d="M1100 778v-618q0 -76 -60 -130.5t-145 -54.5q-77 0 -132.5 33.5t-72.5 97.5q-41 -54 -119 -92.5t-157 -38.5q-144 0 -227 96.5t-83 286.5v420q0 85 60 145t145 60t145 -60t60 -145v-358q0 -42 24.5 -68t63.5 -26t63.5 26t24.5 68v358q0 85 60 145t145 60t145 -60t60 -145 zM244 1214q0 -51 35 -86.5t86 -35.5q40 0 84 32l153 113l164 -121q34 -24 74 -24q51 0 87 35.5t36 86.5q0 58 -52 99l-249 188q-27 19 -60 19q-38 0 -63 -21l-246 -186q-49 -39 -49 -99z" />
<glyph unicode="&#xfc;" horiz-adv-x="1204" d="M1100 778v-618q0 -76 -60 -130.5t-145 -54.5q-77 0 -132.5 33.5t-72.5 97.5q-41 -54 -119 -92.5t-157 -38.5q-144 0 -227 96.5t-83 286.5v420q0 85 60 145t145 60t145 -60t60 -145v-358q0 -42 24.5 -68t63.5 -26t63.5 26t24.5 68v358q0 85 60 145t145 60t145 -60t60 -145 zM233 1288q0 64 45.5 110t110.5 46t110.5 -46t45.5 -110t-45.5 -109.5t-110.5 -45.5t-110.5 45.5t-45.5 109.5zM659 1288q0 64 45.5 110t110.5 46t110.5 -46t45.5 -110t-45.5 -109.5t-110.5 -45.5t-110.5 45.5t-45.5 109.5z" />
<glyph unicode="&#xfd;" horiz-adv-x="1167" d="M265 -391q0 35 13 72l125 348l-311 671q-20 45 -20 88q0 82 55.5 138.5t136.5 56.5q62 0 112 -34.5t70 -90.5l148 -399l133 395q20 58 69 93.5t113 35.5q82 0 138.5 -56.5t56.5 -138.5q0 -35 -12 -69l-429 -1174q-22 -61 -75.5 -101t-119.5 -40q-85 0 -144 60t-59 145z M844 1362q0 -64 -64 -111l-194 -139q-32 -22 -72 -22q-51 0 -87 34.5t-36 85.5q0 63 58 107l184 139q46 33 86 33q52 0 88.5 -37t36.5 -90z" />
<glyph unicode="&#xfe;" horiz-adv-x="1320" d="M104 -373v1735q0 85 60 145t145 60t145 -60t60 -145v-510q52 58 132.5 94.5t164.5 36.5q194 0 317 -144t123 -360t-123 -360t-317 -144q-84 0 -164.5 36.5t-132.5 94.5v-481q0 -83 -61 -143t-144 -60q-85 0 -145 60t-60 145zM555 479q0 -60 41.5 -101.5t101.5 -41.5 t102 41.5t42 101.5t-42 102t-102 42t-101.5 -42t-41.5 -102z" />
<glyph unicode="&#xff;" horiz-adv-x="1167" d="M265 -391q0 35 13 72l125 348l-311 671q-20 45 -20 88q0 82 55.5 138.5t136.5 56.5q62 0 112 -34.5t70 -90.5l148 -399l133 395q20 58 69 93.5t113 35.5q82 0 138.5 -56.5t56.5 -138.5q0 -35 -12 -69l-429 -1174q-22 -61 -75.5 -101t-119.5 -40q-85 0 -144 60t-59 145z M229 1288q0 64 45.5 110t110.5 46t110.5 -46t45.5 -110t-45.5 -109.5t-110.5 -45.5t-110.5 45.5t-45.5 109.5zM655 1288q0 64 45.5 110t110.5 46t110.5 -46t45.5 -110t-45.5 -109.5t-110.5 -45.5t-110.5 45.5t-45.5 109.5z" />
<glyph unicode="&#x152;" horiz-adv-x="1835" d="M850 1434h760q70 0 121 -51t51 -121t-51 -121t-121 -51h-285v-187h244q71 0 121.5 -50.5t50.5 -121.5t-50.5 -121.5t-121.5 -50.5h-244v-215h301q70 0 121 -51t51 -121t-51 -121t-121 -51h-776q-155 0 -298 54t-249 147.5t-169.5 228.5t-63.5 287t63.5 287t169.5 228.5 t249 147.5t298 54zM850 416v602q-139 0 -229.5 -83.5t-90.5 -217.5t90.5 -217.5t229.5 -83.5z" />
<glyph unicode="&#x153;" horiz-adv-x="1845" d="M934 111q-62 -64 -155 -100t-199 -36q-142 0 -263.5 68t-192.5 184t-71 252q0 139 71 255t192 182.5t264 66.5q106 0 199 -35.5t155 -99.5q132 135 350 135q106 0 201.5 -41t162 -107.5t105.5 -151.5t39 -171v-6q0 -46 -32.5 -77.5t-78.5 -31.5h-553q6 -66 52.5 -100.5 t107.5 -34.5q85 0 150 43q68 41 104 41q65 0 109.5 -42.5t44.5 -106.5q0 -75 -92 -134q-139 -88 -320 -88q-108 0 -202.5 36t-147.5 100zM449 479q0 -60 41.5 -101.5t101.5 -41.5t101.5 41.5t41.5 101.5t-41.5 102t-101.5 42t-101.5 -42t-41.5 -102zM1274 725 q-55 0 -92.5 -27t-51.5 -75h287q-14 48 -51 75t-92 27z" />
<glyph unicode="&#x178;" horiz-adv-x="1511" d="M145 1237q0 92 64.5 156.5t155.5 64.5q66 0 119.5 -38t84.5 -99l187 -371l186 371q31 61 84 99t119 38q92 0 156.5 -64.5t64.5 -156.5q0 -61 -27 -107l-346 -595v-322q0 -98 -69.5 -168t-167.5 -70t-168 70t-70 168v322l-344 593q-29 50 -29 109zM387 1747 q0 65 45.5 110.5t110.5 45.5q64 0 109.5 -45.5t45.5 -110.5t-45.5 -110.5t-109.5 -45.5q-65 0 -110.5 45.5t-45.5 110.5zM813 1747q0 65 45.5 110.5t110.5 45.5q64 0 109.5 -45.5t45.5 -110.5t-45.5 -110.5t-109.5 -45.5q-65 0 -110.5 45.5t-45.5 110.5z" />
<glyph unicode="&#x2c6;" horiz-adv-x="880" d="M82 1255q0 -51 35 -86.5t86 -35.5q40 0 84 32l153 113l164 -121q34 -24 74 -24q51 0 87 35.5t36 86.5q0 59 -51 99l-250 188q-27 19 -60 19q-38 0 -63 -21l-246 -186q-49 -39 -49 -99z" />
<glyph unicode="&#x2dc;" horiz-adv-x="880" d="M76 1274q0 13 4 33q58 196 223 196q83 0 166 -67q48 -39 78 -39q31 0 41 28q12 30 40.5 50t61.5 20q44 0 77.5 -33.5t33.5 -77.5q0 -19 -6 -34q-59 -191 -220 -191q-80 0 -165 68q-48 39 -78 39q-28 0 -43 -33q-14 -31 -42 -50.5t-61 -19.5q-44 0 -77 33.5t-33 77.5z" />
<glyph unicode="&#x2000;" horiz-adv-x="974" />
<glyph unicode="&#x2001;" horiz-adv-x="1948" />
<glyph unicode="&#x2002;" horiz-adv-x="974" />
<glyph unicode="&#x2003;" horiz-adv-x="1948" />
<glyph unicode="&#x2004;" horiz-adv-x="649" />
<glyph unicode="&#x2005;" horiz-adv-x="487" />
<glyph unicode="&#x2006;" horiz-adv-x="324" />
<glyph unicode="&#x2007;" horiz-adv-x="324" />
<glyph unicode="&#x2008;" horiz-adv-x="243" />
<glyph unicode="&#x2009;" horiz-adv-x="389" />
<glyph unicode="&#x200a;" horiz-adv-x="108" />
<glyph unicode="&#x2010;" horiz-adv-x="831" d="M59 680q0 70 49.5 120t120.5 50h371q70 0 120 -50t50 -120t-50 -120t-120 -50h-371q-71 0 -120.5 50t-49.5 120z" />
<glyph unicode="&#x2011;" horiz-adv-x="831" d="M59 680q0 70 49.5 120t120.5 50h371q70 0 120 -50t50 -120t-50 -120t-120 -50h-371q-71 0 -120.5 50t-49.5 120z" />
<glyph unicode="&#x2012;" horiz-adv-x="831" d="M59 680q0 70 49.5 120t120.5 50h371q70 0 120 -50t50 -120t-50 -120t-120 -50h-371q-71 0 -120.5 50t-49.5 120z" />
<glyph unicode="&#x2013;" horiz-adv-x="1024" d="M-20 680q0 70 50 120t120 50h724q70 0 120 -50t50 -120t-50 -120t-120 -50h-724q-70 0 -120 50t-50 120z" />
<glyph unicode="&#x2014;" horiz-adv-x="2048" d="M-20 680q0 70 50 120t120 50h1748q70 0 120 -50t50 -120t-50 -120t-120 -50h-1748q-70 0 -120 50t-50 120z" />
<glyph unicode="&#x2018;" horiz-adv-x="663" d="M651 1464q0 -24 -6 -45l-98 -436q-15 -67 -70.5 -110.5t-126.5 -43.5q-85 0 -144 59t-59 144q0 29 11 66l153 420q20 54 64.5 87t101.5 33q72 0 123 -51t51 -123z" />
<glyph unicode="&#x2019;" horiz-adv-x="663" d="M45 1057q0 24 6 45l99 436q15 67 70 110.5t126 43.5q85 0 144 -59t59 -144q0 -33 -10 -66l-154 -419q-20 -54 -64.5 -87.5t-101.5 -33.5q-72 0 -123 51t-51 123z" />
<glyph unicode="&#x201a;" horiz-adv-x="663" d="M45 -170q0 24 6 45l99 436q15 67 70 110.5t126 43.5q85 0 144 -59t59 -144q0 -32 -10 -65l-154 -420q-20 -54 -64.5 -87.5t-101.5 -33.5q-72 0 -123 51t-51 123z" />
<glyph unicode="&#x201c;" horiz-adv-x="1259" d="M651 1464q0 -24 -6 -45l-98 -436q-15 -67 -70.5 -110.5t-126.5 -43.5q-85 0 -144 59t-59 144q0 29 11 66l153 420q20 54 64.5 87t101.5 33q72 0 123 -51t51 -123zM1247 1464q0 -24 -6 -45l-98 -436q-15 -67 -70.5 -110.5t-126.5 -43.5q-85 0 -144 59t-59 144q0 29 11 66 l153 420q20 54 64.5 87t101.5 33q72 0 123 -51t51 -123z" />
<glyph unicode="&#x201d;" horiz-adv-x="1259" d="M45 1057q0 24 6 45l99 436q15 67 70 110.5t126 43.5q85 0 144 -59t59 -144q0 -33 -10 -66l-154 -419q-20 -54 -64.5 -87.5t-101.5 -33.5q-72 0 -123 51t-51 123zM641 1057q0 24 6 45l98 436q15 67 70.5 110.5t126.5 43.5q85 0 144 -59t59 -144q0 -33 -10 -66l-154 -419 q-20 -54 -64.5 -87.5t-101.5 -33.5q-72 0 -123 51t-51 123z" />
<glyph unicode="&#x201e;" horiz-adv-x="1259" d="M45 -170q0 24 6 45l99 436q15 67 70 110.5t126 43.5q85 0 144 -59t59 -144q0 -32 -10 -65l-154 -420q-20 -54 -64.5 -87.5t-101.5 -33.5q-72 0 -123 51t-51 123zM641 -170q0 24 6 45l98 436q15 67 70.5 110.5t126.5 43.5q85 0 144 -59t59 -144q0 -32 -10 -65l-154 -420 q-20 -54 -64.5 -87.5t-101.5 -33.5q-72 0 -123 51t-51 123z" />
<glyph unicode="&#x2022;" horiz-adv-x="1003" d="M158 680q0 141 101.5 242.5t242.5 101.5t242.5 -101.5t101.5 -242.5t-101.5 -242.5t-242.5 -101.5t-242.5 101.5t-101.5 242.5z" />
<glyph unicode="&#x2026;" horiz-adv-x="1990" d="M332 -25q-101 0 -173.5 71.5t-72.5 172.5t72.5 173.5t173.5 72.5t173.5 -72.5t72.5 -173.5t-72.5 -172.5t-173.5 -71.5zM995 -25q-101 0 -173 71.5t-72 172.5t72 173.5t173 72.5t173.5 -72.5t72.5 -173.5t-72.5 -172.5t-173.5 -71.5zM1659 -25q-101 0 -173.5 71.5 t-72.5 172.5t72.5 173.5t173.5 72.5t173.5 -72.5t72.5 -173.5t-72.5 -172.5t-173.5 -71.5z" />
<glyph unicode="&#x202f;" horiz-adv-x="389" />
<glyph unicode="&#x2039;" horiz-adv-x="724" d="M59 639q0 63 50 100l340 260q49 35 86 35q54 0 91.5 -37.5t37.5 -91.5q0 -60 -46 -96l-212 -170l212 -170q46 -36 46 -96q0 -54 -37.5 -91.5t-91.5 -37.5q-37 0 -86 35l-340 262q-50 40 -50 98z" />
<glyph unicode="&#x203a;" horiz-adv-x="724" d="M666 639q0 -58 -50 -98l-340 -262q-49 -35 -86 -35q-54 0 -91.5 37.5t-37.5 91.5q0 61 45 96l213 170l-213 170q-45 35 -45 96q0 54 37.5 91.5t91.5 37.5q37 0 86 -35l340 -260q50 -37 50 -100z" />
<glyph unicode="&#x205f;" horiz-adv-x="487" />
<glyph unicode="&#x20ac;" horiz-adv-x="1472" d="M8 827q0 29 20.5 49.5t49.5 20.5h65q52 256 239.5 408.5t446.5 152.5q263 0 459 -147q42 -31 67 -76.5t25 -97.5q0 -86 -61 -144.5t-148 -58.5q-73 0 -147 57q-83 62 -182 62q-80 0 -138 -41t-90 -115h316q29 0 49 -20.5t20 -49.5t-20 -49t-49 -20h-346q-2 -14 -2 -41 q0 -29 2 -41h346q29 0 49 -20.5t20 -49.5t-20 -49t-49 -20h-316q31 -75 89 -115.5t139 -40.5q61 0 105.5 17t87.5 52q59 50 136 50q87 0 148 -58.5t61 -144.5q0 -103 -100 -178q-198 -144 -451 -144q-259 0 -446.5 152.5t-239.5 409.5h-65q-29 0 -49.5 20t-20.5 49 t20.5 49.5t49.5 20.5h49v82h-49q-29 0 -49.5 20t-20.5 49z" />
<glyph unicode="&#x2122;" horiz-adv-x="1482" d="M553 834q0 17 8 45l162 489q9 30 32.5 48t53.5 18q34 0 59 -18.5t33 -47.5l70 -248l69 246q8 31 31.5 49.5t54.5 18.5q33 0 58 -18.5t35 -49.5l163 -494q7 -21 7 -38q0 -46 -32.5 -77.5t-78.5 -31.5q-39 0 -69 23.5t-38 60.5l-53 233l-67 -247q-7 -27 -29.5 -43.5 t-54.5 -16.5q-27 0 -48 16.5t-28 43.5l-68 247l-53 -235q-8 -36 -38.5 -59t-69.5 -23q-46 0 -77.5 31.5t-31.5 77.5zM199 836v387h-58q-43 0 -71.5 28.5t-28.5 71.5t28.5 72.5t71.5 29.5h340q43 0 73 -29.5t30 -72.5q0 -42 -30 -71t-73 -29h-57v-387q0 -46 -33.5 -79.5 t-79.5 -33.5t-79 33.5t-33 79.5z" />
<glyph unicode="&#x25fc;" horiz-adv-x="983" d="M0 983h983v-983h-983v983z" />
</font>
</defs>
</svg>
